ISO-10303-21;
HEADER;
FILE_DESCRIPTION(('FreeCAD Model'),'2;1');
FILE_NAME('Open CASCADE Shape Model','2026-10-02T10:49:35',('FreeCAD'),(
    'FreeCAD'),'Open CASCADE STEP processor 7.9','FreeCAD','Unknown');
FILE_SCHEMA(('AUTOMOTIVE_DESIGN { 1 0 10303 214 1 1 1 1 }'));
ENDSEC;
DATA;
#1 = APPLICATION_PROTOCOL_DEFINITION('international standard',
  'automotive_design',2000,#2);
#2 = APPLICATION_CONTEXT(
  'core data for automotive mechanical design processes');
#3 = SHAPE_DEFINITION_REPRESENTATION(#4,#10);
#4 = PRODUCT_DEFINITION_SHAPE('','',#5);
#5 = PRODUCT_DEFINITION('design','',#6,#9);
#6 = PRODUCT_DEFINITION_FORMATION('','',#7);
#7 = PRODUCT('Open CASCADE STEP translator 7.9 3',
  'Open CASCADE STEP translator 7.9 3','',(#8));
#8 = PRODUCT_CONTEXT('',#2,'mechanical');
#9 = PRODUCT_DEFINITION_CONTEXT('part definition',#2,'design');
#10 = ADVANCED_BREP_SHAPE_REPRESENTATION('',(#11,#15),#696);
#11 = AXIS2_PLACEMENT_3D('',#12,#13,#14);
#12 = CARTESIAN_POINT('',(0.,0.,0.));
#13 = DIRECTION('',(0.,0.,1.));
#14 = DIRECTION('',(1.,0.,-0.));
#15 = MANIFOLD_SOLID_BREP('',#16);
#16 = CLOSED_SHELL('',(#17,#49,#72,#103,#134,#158,#182,#213,#245,#266,
    #297,#328,#352,#369,#409,#463,#485,#502,#519,#559,#571,#589,#606,
    #619,#650,#672,#684));
#17 = ADVANCED_FACE('',(#18),#44,.T.);
#18 = FACE_BOUND('',#19,.T.);
#19 = EDGE_LOOP('',(#20,#30,#38));
#20 = ORIENTED_EDGE('',*,*,#21,.T.);
#21 = EDGE_CURVE('',#22,#24,#26,.T.);
#22 = VERTEX_POINT('',#23);
#23 = CARTESIAN_POINT('',(20.,48.5,5.));
#24 = VERTEX_POINT('',#25);
#25 = CARTESIAN_POINT('',(5.,46.991401672363,10.));
#26 = LINE('',#27,#28);
#27 = CARTESIAN_POINT('',(20.,48.5,5.));
#28 = VECTOR('',#29,1.);
#29 = DIRECTION('',(-0.944394401183,-9.498078761692E-02,0.314798133728)
  );
#30 = ORIENTED_EDGE('',*,*,#31,.F.);
#31 = EDGE_CURVE('',#32,#24,#34,.T.);
#32 = VERTEX_POINT('',#33);
#33 = CARTESIAN_POINT('',(15.,24.,86.199996948242));
#34 = LINE('',#35,#36);
#35 = CARTESIAN_POINT('',(15.,24.,86.199996948242));
#36 = VECTOR('',#37,1.);
#37 = DIRECTION('',(-0.124659171653,0.286608908761,-0.949902849949));
#38 = ORIENTED_EDGE('',*,*,#39,.F.);
#39 = EDGE_CURVE('',#22,#32,#40,.T.);
#40 = LINE('',#41,#42);
#41 = CARTESIAN_POINT('',(20.,48.5,5.));
#42 = VECTOR('',#43,1.);
#43 = DIRECTION('',(-5.884923522257E-02,-0.288361252591,0.955711544096)
  );
#44 = PLANE('',#45);
#45 = AXIS2_PLACEMENT_3D('',#46,#47,#48);
#46 = CARTESIAN_POINT('',(13.738603802262,36.924231212135,
    43.365423401867));
#47 = DIRECTION('',(1.460852955436E-06,0.957370755839,0.288861966796));
#48 = DIRECTION('',(5.293955920339E-23,-0.288861966797,0.95737075584));
#49 = ADVANCED_FACE('',(#50),#67,.T.);
#50 = FACE_BOUND('',#51,.T.);
#51 = EDGE_LOOP('',(#52,#53,#61));
#52 = ORIENTED_EDGE('',*,*,#21,.F.);
#53 = ORIENTED_EDGE('',*,*,#54,.F.);
#54 = EDGE_CURVE('',#55,#22,#57,.T.);
#55 = VERTEX_POINT('',#56);
#56 = CARTESIAN_POINT('',(5.,48.5,5.));
#57 = LINE('',#58,#59);
#58 = CARTESIAN_POINT('',(5.,48.5,5.));
#59 = VECTOR('',#60,1.);
#60 = DIRECTION('',(1.,0.,0.));
#61 = ORIENTED_EDGE('',*,*,#62,.T.);
#62 = EDGE_CURVE('',#55,#24,#63,.T.);
#63 = LINE('',#64,#65);
#64 = CARTESIAN_POINT('',(5.,48.5,5.));
#65 = VECTOR('',#66,1.);
#66 = DIRECTION('',(0.,-0.288857949916,0.957371967821));
#67 = PLANE('',#68);
#68 = AXIS2_PLACEMENT_3D('',#69,#70,#71);
#69 = CARTESIAN_POINT('',(11.415141021115,48.059070976771,6.461386424576
    ));
#70 = DIRECTION('',(0.,0.957371967821,0.288857949916));
#71 = DIRECTION('',(0.,-0.288857949916,0.957371967821));
#72 = ADVANCED_FACE('',(#73),#98,.T.);
#73 = FACE_BOUND('',#74,.T.);
#74 = EDGE_LOOP('',(#75,#76,#84,#92));
#75 = ORIENTED_EDGE('',*,*,#54,.T.);
#76 = ORIENTED_EDGE('',*,*,#77,.F.);
#77 = EDGE_CURVE('',#78,#22,#80,.T.);
#78 = VERTEX_POINT('',#79);
#79 = CARTESIAN_POINT('',(20.,48.5,0.));
#80 = LINE('',#81,#82);
#81 = CARTESIAN_POINT('',(20.,48.5,0.));
#82 = VECTOR('',#83,1.);
#83 = DIRECTION('',(0.,0.,1.));
#84 = ORIENTED_EDGE('',*,*,#85,.F.);
#85 = EDGE_CURVE('',#86,#78,#88,.T.);
#86 = VERTEX_POINT('',#87);
#87 = CARTESIAN_POINT('',(5.,48.5,0.));
#88 = LINE('',#89,#90);
#89 = CARTESIAN_POINT('',(5.,48.5,0.));
#90 = VECTOR('',#91,1.);
#91 = DIRECTION('',(1.,0.,0.));
#92 = ORIENTED_EDGE('',*,*,#93,.T.);
#93 = EDGE_CURVE('',#86,#55,#94,.T.);
#94 = LINE('',#95,#96);
#95 = CARTESIAN_POINT('',(5.,48.5,0.));
#96 = VECTOR('',#97,1.);
#97 = DIRECTION('',(0.,0.,1.));
#98 = PLANE('',#99);
#99 = AXIS2_PLACEMENT_3D('',#100,#101,#102);
#100 = CARTESIAN_POINT('',(12.5,48.5,2.5));
#101 = DIRECTION('',(0.,1.,0.));
#102 = DIRECTION('',(0.,-0.,1.));
#103 = ADVANCED_FACE('',(#104),#129,.T.);
#104 = FACE_BOUND('',#105,.T.);
#105 = EDGE_LOOP('',(#106,#107,#115,#123));
#106 = ORIENTED_EDGE('',*,*,#77,.T.);
#107 = ORIENTED_EDGE('',*,*,#108,.T.);
#108 = EDGE_CURVE('',#22,#109,#111,.T.);
#109 = VERTEX_POINT('',#110);
#110 = CARTESIAN_POINT('',(20.,16.5,5.));
#111 = LINE('',#112,#113);
#112 = CARTESIAN_POINT('',(20.,48.5,5.));
#113 = VECTOR('',#114,1.);
#114 = DIRECTION('',(0.,-1.,0.));
#115 = ORIENTED_EDGE('',*,*,#116,.T.);
#116 = EDGE_CURVE('',#109,#117,#119,.T.);
#117 = VERTEX_POINT('',#118);
#118 = CARTESIAN_POINT('',(20.,16.5,0.));
#119 = LINE('',#120,#121);
#120 = CARTESIAN_POINT('',(20.,16.5,5.));
#121 = VECTOR('',#122,1.);
#122 = DIRECTION('',(0.,0.,-1.));
#123 = ORIENTED_EDGE('',*,*,#124,.T.);
#124 = EDGE_CURVE('',#117,#78,#125,.T.);
#125 = LINE('',#126,#127);
#126 = CARTESIAN_POINT('',(20.,16.5,0.));
#127 = VECTOR('',#128,1.);
#128 = DIRECTION('',(0.,1.,0.));
#129 = PLANE('',#130);
#130 = AXIS2_PLACEMENT_3D('',#131,#132,#133);
#131 = CARTESIAN_POINT('',(20.,32.5,2.5));
#132 = DIRECTION('',(1.,0.,0.));
#133 = DIRECTION('',(-0.,0.,1.));
#134 = ADVANCED_FACE('',(#135),#153,.T.);
#135 = FACE_BOUND('',#136,.T.);
#136 = EDGE_LOOP('',(#137,#138,#146,#152));
#137 = ORIENTED_EDGE('',*,*,#124,.F.);
#138 = ORIENTED_EDGE('',*,*,#139,.T.);
#139 = EDGE_CURVE('',#117,#140,#142,.T.);
#140 = VERTEX_POINT('',#141);
#141 = CARTESIAN_POINT('',(5.,16.5,0.));
#142 = LINE('',#143,#144);
#143 = CARTESIAN_POINT('',(20.,16.5,0.));
#144 = VECTOR('',#145,1.);
#145 = DIRECTION('',(-1.,0.,0.));
#146 = ORIENTED_EDGE('',*,*,#147,.T.);
#147 = EDGE_CURVE('',#140,#86,#148,.T.);
#148 = LINE('',#149,#150);
#149 = CARTESIAN_POINT('',(5.,16.5,0.));
#150 = VECTOR('',#151,1.);
#151 = DIRECTION('',(0.,1.,0.));
#152 = ORIENTED_EDGE('',*,*,#85,.T.);
#153 = PLANE('',#154);
#154 = AXIS2_PLACEMENT_3D('',#155,#156,#157);
#155 = CARTESIAN_POINT('',(12.5,32.5,0.));
#156 = DIRECTION('',(-0.,-0.,-1.));
#157 = DIRECTION('',(-1.,0.,0.));
#158 = ADVANCED_FACE('',(#159),#177,.T.);
#159 = FACE_BOUND('',#160,.T.);
#160 = EDGE_LOOP('',(#161,#162,#163,#171));
#161 = ORIENTED_EDGE('',*,*,#108,.F.);
#162 = ORIENTED_EDGE('',*,*,#39,.T.);
#163 = ORIENTED_EDGE('',*,*,#164,.F.);
#164 = EDGE_CURVE('',#165,#32,#167,.T.);
#165 = VERTEX_POINT('',#166);
#166 = CARTESIAN_POINT('',(15.,16.,86.199996948242));
#167 = LINE('',#168,#169);
#168 = CARTESIAN_POINT('',(15.,16.,86.199996948242));
#169 = VECTOR('',#170,1.);
#170 = DIRECTION('',(0.,1.,0.));
#171 = ORIENTED_EDGE('',*,*,#172,.T.);
#172 = EDGE_CURVE('',#165,#109,#173,.T.);
#173 = LINE('',#174,#175);
#174 = CARTESIAN_POINT('',(15.,16.,86.199996948242));
#175 = VECTOR('',#176,1.);
#176 = DIRECTION('',(6.145878925468E-02,6.145878925468E-03,
    -0.998090699985));
#177 = PLANE('',#178);
#178 = AXIS2_PLACEMENT_3D('',#179,#180,#181);
#179 = CARTESIAN_POINT('',(17.790812928757,27.151885662505,
    40.877196688601));
#180 = DIRECTION('',(0.998109550374,0.,6.145994999296E-02));
#181 = DIRECTION('',(-6.145994999296E-02,0.,0.998109550374));
#182 = ADVANCED_FACE('',(#183),#208,.T.);
#183 = FACE_BOUND('',#184,.T.);
#184 = EDGE_LOOP('',(#185,#186,#194,#202));
#185 = ORIENTED_EDGE('',*,*,#164,.T.);
#186 = ORIENTED_EDGE('',*,*,#187,.T.);
#187 = EDGE_CURVE('',#32,#188,#190,.T.);
#188 = VERTEX_POINT('',#189);
#189 = CARTESIAN_POINT('',(-15.,24.,86.199996948242));
#190 = LINE('',#191,#192);
#191 = CARTESIAN_POINT('',(15.,24.,86.199996948242));
#192 = VECTOR('',#193,1.);
#193 = DIRECTION('',(-1.,0.,0.));
#194 = ORIENTED_EDGE('',*,*,#195,.T.);
#195 = EDGE_CURVE('',#188,#196,#198,.T.);
#196 = VERTEX_POINT('',#197);
#197 = CARTESIAN_POINT('',(-15.,16.,86.199996948242));
#198 = LINE('',#199,#200);
#199 = CARTESIAN_POINT('',(-15.,24.,86.199996948242));
#200 = VECTOR('',#201,1.);
#201 = DIRECTION('',(0.,-1.,0.));
#202 = ORIENTED_EDGE('',*,*,#203,.T.);
#203 = EDGE_CURVE('',#196,#165,#204,.T.);
#204 = LINE('',#205,#206);
#205 = CARTESIAN_POINT('',(-15.,16.,86.199996948242));
#206 = VECTOR('',#207,1.);
#207 = DIRECTION('',(1.,0.,0.));
#208 = PLANE('',#209);
#209 = AXIS2_PLACEMENT_3D('',#210,#211,#212);
#210 = CARTESIAN_POINT('',(0.,20.,86.199996948242));
#211 = DIRECTION('',(0.,0.,1.));
#212 = DIRECTION('',(1.,0.,-0.));
#213 = ADVANCED_FACE('',(#214),#240,.T.);
#214 = FACE_BOUND('',#215,.T.);
#215 = EDGE_LOOP('',(#216,#226,#234));
#216 = ORIENTED_EDGE('',*,*,#217,.T.);
#217 = EDGE_CURVE('',#218,#220,#222,.T.);
#218 = VERTEX_POINT('',#219);
#219 = CARTESIAN_POINT('',(-20.,48.5,5.));
#220 = VERTEX_POINT('',#221);
#221 = CARTESIAN_POINT('',(-5.,46.991401672363,10.));
#222 = LINE('',#223,#224);
#223 = CARTESIAN_POINT('',(-20.,48.5,5.));
#224 = VECTOR('',#225,1.);
#225 = DIRECTION('',(0.944394401183,-9.498078761692E-02,0.314798133728)
  );
#226 = ORIENTED_EDGE('',*,*,#227,.T.);
#227 = EDGE_CURVE('',#220,#228,#230,.T.);
#228 = VERTEX_POINT('',#229);
#229 = CARTESIAN_POINT('',(-5.,48.5,5.));
#230 = LINE('',#231,#232);
#231 = CARTESIAN_POINT('',(-5.,46.991401672363,10.));
#232 = VECTOR('',#233,1.);
#233 = DIRECTION('',(0.,0.288857949916,-0.957371967821));
#234 = ORIENTED_EDGE('',*,*,#235,.F.);
#235 = EDGE_CURVE('',#218,#228,#236,.T.);
#236 = LINE('',#237,#238);
#237 = CARTESIAN_POINT('',(-20.,48.5,5.));
#238 = VECTOR('',#239,1.);
#239 = DIRECTION('',(1.,0.,0.));
#240 = PLANE('',#241);
#241 = AXIS2_PLACEMENT_3D('',#242,#243,#244);
#242 = CARTESIAN_POINT('',(-11.41514102111,48.059070976771,
    6.461386424576));
#243 = DIRECTION('',(0.,0.957371967821,0.288857949916));
#244 = DIRECTION('',(0.,-0.288857949916,0.957371967821));
#245 = ADVANCED_FACE('',(#246),#261,.T.);
#246 = FACE_BOUND('',#247,.T.);
#247 = EDGE_LOOP('',(#248,#249,#255));
#248 = ORIENTED_EDGE('',*,*,#217,.F.);
#249 = ORIENTED_EDGE('',*,*,#250,.F.);
#250 = EDGE_CURVE('',#188,#218,#251,.T.);
#251 = LINE('',#252,#253);
#252 = CARTESIAN_POINT('',(-15.,24.,86.199996948242));
#253 = VECTOR('',#254,1.);
#254 = DIRECTION('',(-5.884923522257E-02,0.288361252591,-0.955711544096)
  );
#255 = ORIENTED_EDGE('',*,*,#256,.F.);
#256 = EDGE_CURVE('',#220,#188,#257,.T.);
#257 = LINE('',#258,#259);
#258 = CARTESIAN_POINT('',(-5.,46.991401672363,10.));
#259 = VECTOR('',#260,1.);
#260 = DIRECTION('',(-0.124659171653,-0.286608908761,0.949902849949));
#261 = PLANE('',#262);
#262 = AXIS2_PLACEMENT_3D('',#263,#264,#265);
#263 = CARTESIAN_POINT('',(-13.73860380226,36.924231212135,
    43.365423401867));
#264 = DIRECTION('',(-1.460852955282E-06,0.957370755839,0.288861966796)
  );
#265 = DIRECTION('',(0.,-0.288861966797,0.95737075584));
#266 = ADVANCED_FACE('',(#267),#292,.T.);
#267 = FACE_BOUND('',#268,.T.);
#268 = EDGE_LOOP('',(#269,#270,#278,#286));
#269 = ORIENTED_EDGE('',*,*,#235,.T.);
#270 = ORIENTED_EDGE('',*,*,#271,.T.);
#271 = EDGE_CURVE('',#228,#272,#274,.T.);
#272 = VERTEX_POINT('',#273);
#273 = CARTESIAN_POINT('',(-5.,48.5,0.));
#274 = LINE('',#275,#276);
#275 = CARTESIAN_POINT('',(-5.,48.5,5.));
#276 = VECTOR('',#277,1.);
#277 = DIRECTION('',(0.,0.,-1.));
#278 = ORIENTED_EDGE('',*,*,#279,.F.);
#279 = EDGE_CURVE('',#280,#272,#282,.T.);
#280 = VERTEX_POINT('',#281);
#281 = CARTESIAN_POINT('',(-20.,48.5,0.));
#282 = LINE('',#283,#284);
#283 = CARTESIAN_POINT('',(-20.,48.5,0.));
#284 = VECTOR('',#285,1.);
#285 = DIRECTION('',(1.,0.,0.));
#286 = ORIENTED_EDGE('',*,*,#287,.T.);
#287 = EDGE_CURVE('',#280,#218,#288,.T.);
#288 = LINE('',#289,#290);
#289 = CARTESIAN_POINT('',(-20.,48.5,0.));
#290 = VECTOR('',#291,1.);
#291 = DIRECTION('',(0.,0.,1.));
#292 = PLANE('',#293);
#293 = AXIS2_PLACEMENT_3D('',#294,#295,#296);
#294 = CARTESIAN_POINT('',(-12.5,48.5,2.5));
#295 = DIRECTION('',(0.,1.,0.));
#296 = DIRECTION('',(0.,-0.,1.));
#297 = ADVANCED_FACE('',(#298),#323,.T.);
#298 = FACE_BOUND('',#299,.T.);
#299 = EDGE_LOOP('',(#300,#308,#316,#322));
#300 = ORIENTED_EDGE('',*,*,#301,.T.);
#301 = EDGE_CURVE('',#272,#302,#304,.T.);
#302 = VERTEX_POINT('',#303);
#303 = CARTESIAN_POINT('',(-5.,16.5,0.));
#304 = LINE('',#305,#306);
#305 = CARTESIAN_POINT('',(-5.,48.5,0.));
#306 = VECTOR('',#307,1.);
#307 = DIRECTION('',(0.,-1.,0.));
#308 = ORIENTED_EDGE('',*,*,#309,.T.);
#309 = EDGE_CURVE('',#302,#310,#312,.T.);
#310 = VERTEX_POINT('',#311);
#311 = CARTESIAN_POINT('',(-20.,16.5,0.));
#312 = LINE('',#313,#314);
#313 = CARTESIAN_POINT('',(-5.,16.5,0.));
#314 = VECTOR('',#315,1.);
#315 = DIRECTION('',(-1.,0.,0.));
#316 = ORIENTED_EDGE('',*,*,#317,.T.);
#317 = EDGE_CURVE('',#310,#280,#318,.T.);
#318 = LINE('',#319,#320);
#319 = CARTESIAN_POINT('',(-20.,16.5,0.));
#320 = VECTOR('',#321,1.);
#321 = DIRECTION('',(0.,1.,0.));
#322 = ORIENTED_EDGE('',*,*,#279,.T.);
#323 = PLANE('',#324);
#324 = AXIS2_PLACEMENT_3D('',#325,#326,#327);
#325 = CARTESIAN_POINT('',(-12.5,32.5,0.));
#326 = DIRECTION('',(-0.,-0.,-1.));
#327 = DIRECTION('',(-1.,0.,0.));
#328 = ADVANCED_FACE('',(#329),#347,.T.);
#329 = FACE_BOUND('',#330,.T.);
#330 = EDGE_LOOP('',(#331,#332,#333,#341));
#331 = ORIENTED_EDGE('',*,*,#287,.F.);
#332 = ORIENTED_EDGE('',*,*,#317,.F.);
#333 = ORIENTED_EDGE('',*,*,#334,.F.);
#334 = EDGE_CURVE('',#335,#310,#337,.T.);
#335 = VERTEX_POINT('',#336);
#336 = CARTESIAN_POINT('',(-20.,16.5,5.));
#337 = LINE('',#338,#339);
#338 = CARTESIAN_POINT('',(-20.,16.5,5.));
#339 = VECTOR('',#340,1.);
#340 = DIRECTION('',(0.,0.,-1.));
#341 = ORIENTED_EDGE('',*,*,#342,.F.);
#342 = EDGE_CURVE('',#218,#335,#343,.T.);
#343 = LINE('',#344,#345);
#344 = CARTESIAN_POINT('',(-20.,48.5,5.));
#345 = VECTOR('',#346,1.);
#346 = DIRECTION('',(0.,-1.,0.));
#347 = PLANE('',#348);
#348 = AXIS2_PLACEMENT_3D('',#349,#350,#351);
#349 = CARTESIAN_POINT('',(-20.,32.5,2.5));
#350 = DIRECTION('',(-1.,-0.,-0.));
#351 = DIRECTION('',(0.,0.,-1.));
#352 = ADVANCED_FACE('',(#353),#364,.T.);
#353 = FACE_BOUND('',#354,.T.);
#354 = EDGE_LOOP('',(#355,#356,#357,#363));
#355 = ORIENTED_EDGE('',*,*,#250,.T.);
#356 = ORIENTED_EDGE('',*,*,#342,.T.);
#357 = ORIENTED_EDGE('',*,*,#358,.T.);
#358 = EDGE_CURVE('',#335,#196,#359,.T.);
#359 = LINE('',#360,#361);
#360 = CARTESIAN_POINT('',(-20.,16.5,5.));
#361 = VECTOR('',#362,1.);
#362 = DIRECTION('',(6.145878925468E-02,-6.145878925468E-03,
    0.998090699985));
#363 = ORIENTED_EDGE('',*,*,#195,.F.);
#364 = PLANE('',#365);
#365 = AXIS2_PLACEMENT_3D('',#366,#367,#368);
#366 = CARTESIAN_POINT('',(-17.79081292875,27.151885662505,
    40.877196688601));
#367 = DIRECTION('',(-0.998109550374,-0.,6.145994999296E-02));
#368 = DIRECTION('',(-6.145994999296E-02,0.,-0.998109550374));
#369 = ADVANCED_FACE('',(#370),#404,.T.);
#370 = FACE_BOUND('',#371,.T.);
#371 = EDGE_LOOP('',(#372,#382,#390,#398));
#372 = ORIENTED_EDGE('',*,*,#373,.T.);
#373 = EDGE_CURVE('',#374,#376,#378,.T.);
#374 = VERTEX_POINT('',#375);
#375 = CARTESIAN_POINT('',(5.007380008698,16.,83.900001525879));
#376 = VERTEX_POINT('',#377);
#377 = CARTESIAN_POINT('',(7.,13.300000190735,83.900001525879));
#378 = LINE('',#379,#380);
#379 = CARTESIAN_POINT('',(5.007380008698,16.,83.900001525879));
#380 = VECTOR('',#381,1.);
#381 = DIRECTION('',(0.593806574356,-0.804607825125,0.));
#382 = ORIENTED_EDGE('',*,*,#383,.T.);
#383 = EDGE_CURVE('',#376,#384,#386,.T.);
#384 = VERTEX_POINT('',#385);
#385 = CARTESIAN_POINT('',(7.,13.300000190735,22.700000762939));
#386 = LINE('',#387,#388);
#387 = CARTESIAN_POINT('',(7.,13.300000190735,83.900001525879));
#388 = VECTOR('',#389,1.);
#389 = DIRECTION('',(0.,0.,-1.));
#390 = ORIENTED_EDGE('',*,*,#391,.T.);
#391 = EDGE_CURVE('',#384,#392,#394,.T.);
#392 = VERTEX_POINT('',#393);
#393 = CARTESIAN_POINT('',(5.007380008698,16.,20.));
#394 = LINE('',#395,#396);
#395 = CARTESIAN_POINT('',(7.,13.300000190735,22.700000762939));
#396 = VECTOR('',#397,1.);
#397 = DIRECTION('',(-0.462643254113,0.626881544557,-0.62688176598));
#398 = ORIENTED_EDGE('',*,*,#399,.F.);
#399 = EDGE_CURVE('',#374,#392,#400,.T.);
#400 = LINE('',#401,#402);
#401 = CARTESIAN_POINT('',(5.007380008698,16.,83.900001525879));
#402 = VECTOR('',#403,1.);
#403 = DIRECTION('',(0.,0.,-1.));
#404 = PLANE('',#405);
#405 = AXIS2_PLACEMENT_3D('',#406,#407,#408);
#406 = CARTESIAN_POINT('',(5.983428006105,14.677455100151,
    52.387160536489));
#407 = DIRECTION('',(0.804607825125,0.593806574356,0.));
#408 = DIRECTION('',(-0.593806574356,0.804607825125,0.));
#409 = ADVANCED_FACE('',(#410),#458,.T.);
#410 = FACE_BOUND('',#411,.T.);
#411 = EDGE_LOOP('',(#412,#413,#421,#427,#428,#436,#444,#452));
#412 = ORIENTED_EDGE('',*,*,#399,.T.);
#413 = ORIENTED_EDGE('',*,*,#414,.T.);
#414 = EDGE_CURVE('',#392,#415,#417,.T.);
#415 = VERTEX_POINT('',#416);
#416 = CARTESIAN_POINT('',(15.,16.,20.));
#417 = LINE('',#418,#419);
#418 = CARTESIAN_POINT('',(5.007380008698,16.,20.));
#419 = VECTOR('',#420,1.);
#420 = DIRECTION('',(1.,0.,0.));
#421 = ORIENTED_EDGE('',*,*,#422,.T.);
#422 = EDGE_CURVE('',#415,#165,#423,.T.);
#423 = LINE('',#424,#425);
#424 = CARTESIAN_POINT('',(15.,16.,20.));
#425 = VECTOR('',#426,1.);
#426 = DIRECTION('',(0.,0.,1.));
#427 = ORIENTED_EDGE('',*,*,#203,.F.);
#428 = ORIENTED_EDGE('',*,*,#429,.T.);
#429 = EDGE_CURVE('',#196,#430,#432,.T.);
#430 = VERTEX_POINT('',#431);
#431 = CARTESIAN_POINT('',(-15.,16.,20.));
#432 = LINE('',#433,#434);
#433 = CARTESIAN_POINT('',(-15.,16.,86.199996948242));
#434 = VECTOR('',#435,1.);
#435 = DIRECTION('',(0.,0.,-1.));
#436 = ORIENTED_EDGE('',*,*,#437,.F.);
#437 = EDGE_CURVE('',#438,#430,#440,.T.);
#438 = VERTEX_POINT('',#439);
#439 = CARTESIAN_POINT('',(-5.007380008698,16.,20.));
#440 = LINE('',#441,#442);
#441 = CARTESIAN_POINT('',(-5.007380008698,16.,20.));
#442 = VECTOR('',#443,1.);
#443 = DIRECTION('',(-1.,0.,0.));
#444 = ORIENTED_EDGE('',*,*,#445,.T.);
#445 = EDGE_CURVE('',#438,#446,#448,.T.);
#446 = VERTEX_POINT('',#447);
#447 = CARTESIAN_POINT('',(-5.007380008698,16.,83.900001525879));
#448 = LINE('',#449,#450);
#449 = CARTESIAN_POINT('',(-5.007380008698,16.,20.));
#450 = VECTOR('',#451,1.);
#451 = DIRECTION('',(0.,0.,1.));
#452 = ORIENTED_EDGE('',*,*,#453,.T.);
#453 = EDGE_CURVE('',#446,#374,#454,.T.);
#454 = LINE('',#455,#456);
#455 = CARTESIAN_POINT('',(-5.007380008698,16.,83.900001525879));
#456 = VECTOR('',#457,1.);
#457 = DIRECTION('',(1.,0.,0.));
#458 = PLANE('',#459);
#459 = AXIS2_PLACEMENT_3D('',#460,#461,#462);
#460 = CARTESIAN_POINT('',(3.550494653502E-16,16.,54.639578343243));
#461 = DIRECTION('',(-0.,-1.,-0.));
#462 = DIRECTION('',(0.,0.,-1.));
#463 = ADVANCED_FACE('',(#464),#480,.F.);
#464 = FACE_BOUND('',#465,.T.);
#465 = EDGE_LOOP('',(#466,#467,#473,#474));
#466 = ORIENTED_EDGE('',*,*,#437,.T.);
#467 = ORIENTED_EDGE('',*,*,#468,.T.);
#468 = EDGE_CURVE('',#430,#415,#469,.T.);
#469 = LINE('',#470,#471);
#470 = CARTESIAN_POINT('',(-15.,16.,20.));
#471 = VECTOR('',#472,1.);
#472 = DIRECTION('',(1.,0.,0.));
#473 = ORIENTED_EDGE('',*,*,#414,.F.);
#474 = ORIENTED_EDGE('',*,*,#475,.T.);
#475 = EDGE_CURVE('',#392,#438,#476,.T.);
#476 = LINE('',#477,#478);
#477 = CARTESIAN_POINT('',(5.007380008698,16.,20.));
#478 = VECTOR('',#479,1.);
#479 = DIRECTION('',(-1.,0.,0.));
#480 = PLANE('',#481);
#481 = AXIS2_PLACEMENT_3D('',#482,#483,#484);
#482 = CARTESIAN_POINT('',(0.,16.,20.));
#483 = DIRECTION('',(-0.,-0.,-1.));
#484 = DIRECTION('',(-1.,0.,0.));
#485 = ADVANCED_FACE('',(#486),#497,.T.);
#486 = FACE_BOUND('',#487,.T.);
#487 = EDGE_LOOP('',(#488,#489,#490,#491));
#488 = ORIENTED_EDGE('',*,*,#429,.F.);
#489 = ORIENTED_EDGE('',*,*,#358,.F.);
#490 = ORIENTED_EDGE('',*,*,#334,.T.);
#491 = ORIENTED_EDGE('',*,*,#492,.T.);
#492 = EDGE_CURVE('',#310,#430,#493,.T.);
#493 = LINE('',#494,#495);
#494 = CARTESIAN_POINT('',(-20.,16.5,0.));
#495 = VECTOR('',#496,1.);
#496 = DIRECTION('',(0.242464322484,-2.424643224844E-02,0.969857289938)
  );
#497 = PLANE('',#498);
#498 = AXIS2_PLACEMENT_3D('',#499,#500,#501);
#499 = CARTESIAN_POINT('',(-16.61651046987,16.161651046987,
    42.983433749872));
#500 = DIRECTION('',(-9.9503719021E-02,-0.99503719021,-0.));
#501 = DIRECTION('',(-0.99503719021,9.9503719021E-02,0.));
#502 = ADVANCED_FACE('',(#503),#514,.T.);
#503 = FACE_BOUND('',#504,.T.);
#504 = EDGE_LOOP('',(#505,#506,#512,#513));
#505 = ORIENTED_EDGE('',*,*,#31,.T.);
#506 = ORIENTED_EDGE('',*,*,#507,.T.);
#507 = EDGE_CURVE('',#24,#220,#508,.T.);
#508 = LINE('',#509,#510);
#509 = CARTESIAN_POINT('',(5.,46.991401672363,10.));
#510 = VECTOR('',#511,1.);
#511 = DIRECTION('',(-1.,0.,0.));
#512 = ORIENTED_EDGE('',*,*,#256,.T.);
#513 = ORIENTED_EDGE('',*,*,#187,.F.);
#514 = PLANE('',#515);
#515 = AXIS2_PLACEMENT_3D('',#516,#517,#518);
#516 = CARTESIAN_POINT('',(0.,34.348639679605,51.901683028901));
#517 = DIRECTION('',(0.,0.957370702823,0.288862142513));
#518 = DIRECTION('',(0.,-0.288862142513,0.957370702823));
#519 = ADVANCED_FACE('',(#520),#554,.T.);
#520 = FACE_BOUND('',#521,.T.);
#521 = EDGE_LOOP('',(#522,#523,#524,#525,#533,#541,#547,#548));
#522 = ORIENTED_EDGE('',*,*,#468,.F.);
#523 = ORIENTED_EDGE('',*,*,#492,.F.);
#524 = ORIENTED_EDGE('',*,*,#309,.F.);
#525 = ORIENTED_EDGE('',*,*,#526,.T.);
#526 = EDGE_CURVE('',#302,#527,#529,.T.);
#527 = VERTEX_POINT('',#528);
#528 = CARTESIAN_POINT('',(-5.,16.25,10.));
#529 = LINE('',#530,#531);
#530 = CARTESIAN_POINT('',(-5.,16.5,0.));
#531 = VECTOR('',#532,1.);
#532 = DIRECTION('',(0.,-2.49921911602E-02,0.999687646408));
#533 = ORIENTED_EDGE('',*,*,#534,.T.);
#534 = EDGE_CURVE('',#527,#535,#537,.T.);
#535 = VERTEX_POINT('',#536);
#536 = CARTESIAN_POINT('',(5.,16.25,10.));
#537 = LINE('',#538,#539);
#538 = CARTESIAN_POINT('',(-5.,16.25,10.));
#539 = VECTOR('',#540,1.);
#540 = DIRECTION('',(1.,0.,0.));
#541 = ORIENTED_EDGE('',*,*,#542,.T.);
#542 = EDGE_CURVE('',#535,#140,#543,.T.);
#543 = LINE('',#544,#545);
#544 = CARTESIAN_POINT('',(5.,16.25,10.));
#545 = VECTOR('',#546,1.);
#546 = DIRECTION('',(0.,2.49921911602E-02,-0.999687646408));
#547 = ORIENTED_EDGE('',*,*,#139,.F.);
#548 = ORIENTED_EDGE('',*,*,#549,.T.);
#549 = EDGE_CURVE('',#117,#415,#550,.T.);
#550 = LINE('',#551,#552);
#551 = CARTESIAN_POINT('',(20.,16.5,0.));
#552 = VECTOR('',#553,1.);
#553 = DIRECTION('',(-0.242464322484,-2.424643224844E-02,0.969857289938)
  );
#554 = PLANE('',#555);
#555 = AXIS2_PLACEMENT_3D('',#556,#557,#558);
#556 = CARTESIAN_POINT('',(2.165472975397E-16,16.269053653206,
    9.237853871772));
#557 = DIRECTION('',(-0.,-0.999687646408,-2.49921911602E-02));
#558 = DIRECTION('',(0.,2.49921911602E-02,-0.999687646408));
#559 = ADVANCED_FACE('',(#560),#566,.T.);
#560 = FACE_BOUND('',#561,.T.);
#561 = EDGE_LOOP('',(#562,#563,#564,#565));
#562 = ORIENTED_EDGE('',*,*,#172,.F.);
#563 = ORIENTED_EDGE('',*,*,#422,.F.);
#564 = ORIENTED_EDGE('',*,*,#549,.F.);
#565 = ORIENTED_EDGE('',*,*,#116,.F.);
#566 = PLANE('',#567);
#567 = AXIS2_PLACEMENT_3D('',#568,#569,#570);
#568 = CARTESIAN_POINT('',(16.61651046987,16.161651046987,
    42.983433749872));
#569 = DIRECTION('',(9.9503719021E-02,-0.99503719021,-0.));
#570 = DIRECTION('',(-0.99503719021,-9.9503719021E-02,0.));
#571 = ADVANCED_FACE('',(#572),#584,.T.);
#572 = FACE_BOUND('',#573,.T.);
#573 = EDGE_LOOP('',(#574,#575,#576,#577,#583));
#574 = ORIENTED_EDGE('',*,*,#93,.F.);
#575 = ORIENTED_EDGE('',*,*,#147,.F.);
#576 = ORIENTED_EDGE('',*,*,#542,.F.);
#577 = ORIENTED_EDGE('',*,*,#578,.T.);
#578 = EDGE_CURVE('',#535,#24,#579,.T.);
#579 = LINE('',#580,#581);
#580 = CARTESIAN_POINT('',(5.,16.25,10.));
#581 = VECTOR('',#582,1.);
#582 = DIRECTION('',(0.,1.,0.));
#583 = ORIENTED_EDGE('',*,*,#62,.F.);
#584 = PLANE('',#585);
#585 = AXIS2_PLACEMENT_3D('',#586,#587,#588);
#586 = CARTESIAN_POINT('',(5.,32.1539762101,4.930859201134));
#587 = DIRECTION('',(-1.,-0.,-0.));
#588 = DIRECTION('',(0.,0.,-1.));
#589 = ADVANCED_FACE('',(#590),#601,.T.);
#590 = FACE_BOUND('',#591,.T.);
#591 = EDGE_LOOP('',(#592,#593,#594,#600));
#592 = ORIENTED_EDGE('',*,*,#578,.F.);
#593 = ORIENTED_EDGE('',*,*,#534,.F.);
#594 = ORIENTED_EDGE('',*,*,#595,.T.);
#595 = EDGE_CURVE('',#527,#220,#596,.T.);
#596 = LINE('',#597,#598);
#597 = CARTESIAN_POINT('',(-5.,16.25,10.));
#598 = VECTOR('',#599,1.);
#599 = DIRECTION('',(0.,1.,0.));
#600 = ORIENTED_EDGE('',*,*,#507,.F.);
#601 = PLANE('',#602);
#602 = AXIS2_PLACEMENT_3D('',#603,#604,#605);
#603 = CARTESIAN_POINT('',(0.,31.620700836182,10.));
#604 = DIRECTION('',(-0.,-0.,-1.));
#605 = DIRECTION('',(-1.,0.,0.));
#606 = ADVANCED_FACE('',(#607),#614,.T.);
#607 = FACE_BOUND('',#608,.T.);
#608 = EDGE_LOOP('',(#609,#610,#611,#612,#613));
#609 = ORIENTED_EDGE('',*,*,#227,.F.);
#610 = ORIENTED_EDGE('',*,*,#595,.F.);
#611 = ORIENTED_EDGE('',*,*,#526,.F.);
#612 = ORIENTED_EDGE('',*,*,#301,.F.);
#613 = ORIENTED_EDGE('',*,*,#271,.F.);
#614 = PLANE('',#615);
#615 = AXIS2_PLACEMENT_3D('',#616,#617,#618);
#616 = CARTESIAN_POINT('',(-5.,32.1539762101,4.930859201134));
#617 = DIRECTION('',(1.,0.,0.));
#618 = DIRECTION('',(-0.,0.,1.));
#619 = ADVANCED_FACE('',(#620),#645,.T.);
#620 = FACE_BOUND('',#621,.T.);
#621 = EDGE_LOOP('',(#622,#623,#631,#639));
#622 = ORIENTED_EDGE('',*,*,#445,.F.);
#623 = ORIENTED_EDGE('',*,*,#624,.T.);
#624 = EDGE_CURVE('',#438,#625,#627,.T.);
#625 = VERTEX_POINT('',#626);
#626 = CARTESIAN_POINT('',(-7.,13.300000190735,22.700000762939));
#627 = LINE('',#628,#629);
#628 = CARTESIAN_POINT('',(-5.007380008698,16.,20.));
#629 = VECTOR('',#630,1.);
#630 = DIRECTION('',(-0.462643254113,-0.626881544557,0.62688176598));
#631 = ORIENTED_EDGE('',*,*,#632,.T.);
#632 = EDGE_CURVE('',#625,#633,#635,.T.);
#633 = VERTEX_POINT('',#634);
#634 = CARTESIAN_POINT('',(-7.,13.300000190735,83.900001525879));
#635 = LINE('',#636,#637);
#636 = CARTESIAN_POINT('',(-7.,13.300000190735,22.700000762939));
#637 = VECTOR('',#638,1.);
#638 = DIRECTION('',(0.,0.,1.));
#639 = ORIENTED_EDGE('',*,*,#640,.T.);
#640 = EDGE_CURVE('',#633,#446,#641,.T.);
#641 = LINE('',#642,#643);
#642 = CARTESIAN_POINT('',(-7.,13.300000190735,83.900001525879));
#643 = VECTOR('',#644,1.);
#644 = DIRECTION('',(0.593806574356,0.804607825125,0.));
#645 = PLANE('',#646);
#646 = AXIS2_PLACEMENT_3D('',#647,#648,#649);
#647 = CARTESIAN_POINT('',(-5.983428006105,14.677455100151,
    52.387160536489));
#648 = DIRECTION('',(-0.804607825125,0.593806574356,-0.));
#649 = DIRECTION('',(-0.593806574356,-0.804607825125,0.));
#650 = ADVANCED_FACE('',(#651),#667,.T.);
#651 = FACE_BOUND('',#652,.T.);
#652 = EDGE_LOOP('',(#653,#659,#660,#666));
#653 = ORIENTED_EDGE('',*,*,#654,.T.);
#654 = EDGE_CURVE('',#376,#633,#655,.T.);
#655 = LINE('',#656,#657);
#656 = CARTESIAN_POINT('',(7.,13.300000190735,83.900001525879));
#657 = VECTOR('',#658,1.);
#658 = DIRECTION('',(-1.,0.,0.));
#659 = ORIENTED_EDGE('',*,*,#632,.F.);
#660 = ORIENTED_EDGE('',*,*,#661,.T.);
#661 = EDGE_CURVE('',#625,#384,#662,.T.);
#662 = LINE('',#663,#664);
#663 = CARTESIAN_POINT('',(-7.,13.300000190735,22.700000762939));
#664 = VECTOR('',#665,1.);
#665 = DIRECTION('',(1.,0.,0.));
#666 = ORIENTED_EDGE('',*,*,#383,.F.);
#667 = PLANE('',#668);
#668 = AXIS2_PLACEMENT_3D('',#669,#670,#671);
#669 = CARTESIAN_POINT('',(0.,13.300000190735,53.300001144409));
#670 = DIRECTION('',(-0.,-1.,-0.));
#671 = DIRECTION('',(0.,0.,-1.));
#672 = ADVANCED_FACE('',(#673),#679,.T.);
#673 = FACE_BOUND('',#674,.T.);
#674 = EDGE_LOOP('',(#675,#676,#677,#678));
#675 = ORIENTED_EDGE('',*,*,#373,.F.);
#676 = ORIENTED_EDGE('',*,*,#453,.F.);
#677 = ORIENTED_EDGE('',*,*,#640,.F.);
#678 = ORIENTED_EDGE('',*,*,#654,.F.);
#679 = PLANE('',#680);
#680 = AXIS2_PLACEMENT_3D('',#681,#682,#683);
#681 = CARTESIAN_POINT('',(0.,14.474902280996,83.900001525879));
#682 = DIRECTION('',(0.,0.,1.));
#683 = DIRECTION('',(1.,0.,-0.));
#684 = ADVANCED_FACE('',(#685),#691,.T.);
#685 = FACE_BOUND('',#686,.T.);
#686 = EDGE_LOOP('',(#687,#688,#689,#690));
#687 = ORIENTED_EDGE('',*,*,#475,.F.);
#688 = ORIENTED_EDGE('',*,*,#391,.F.);
#689 = ORIENTED_EDGE('',*,*,#661,.F.);
#690 = ORIENTED_EDGE('',*,*,#624,.F.);
#691 = PLANE('',#692);
#692 = AXIS2_PLACEMENT_3D('',#693,#694,#695);
#693 = CARTESIAN_POINT('',(-5.444133309148E-17,14.485112966709,
    21.514887568368));
#694 = DIRECTION('',(-0.,-0.707106906066,-0.707106656307));
#695 = DIRECTION('',(0.,0.707106656307,-0.707106906066));
#696 = ( GEOMETRIC_REPRESENTATION_CONTEXT(3) 
GLOBAL_UNCERTAINTY_ASSIGNED_CONTEXT((#700)) GLOBAL_UNIT_ASSIGNED_CONTEXT
((#697,#698,#699)) REPRESENTATION_CONTEXT('Context #1',
  '3D Context with UNIT and UNCERTAINTY') );
#697 = ( LENGTH_UNIT() NAMED_UNIT(*) SI_UNIT(.MILLI.,.METRE.) );
#698 = ( NAMED_UNIT(*) PLANE_ANGLE_UNIT() SI_UNIT($,.RADIAN.) );
#699 = ( NAMED_UNIT(*) SI_UNIT($,.STERADIAN.) SOLID_ANGLE_UNIT() );
#700 = UNCERTAINTY_MEASURE_WITH_UNIT(LENGTH_MEASURE(1.E-07),#697,
  'distance_accuracy_value','confusion accuracy');
#701 = PRODUCT_RELATED_PRODUCT_CATEGORY('part',$,(#7));
ENDSEC;
END-ISO-10303-21;
