ISO-10303-21;
HEADER;
FILE_DESCRIPTION(('FreeCAD Model'),'2;1');
FILE_NAME('Open CASCADE Shape Model','2026-10-06T16:00:30',('FreeCAD'),(
    'FreeCAD'),'Open CASCADE STEP processor 7.9','FreeCAD','Unknown');
FILE_SCHEMA(('AUTOMOTIVE_DESIGN { 1 0 10303 214 1 1 1 1 }'));
ENDSEC;
DATA;
#1 = APPLICATION_PROTOCOL_DEFINITION('international standard',
  'automotive_design',2000,#2);
#2 = APPLICATION_CONTEXT(
  'core data for automotive mechanical design processes');
#3 = SHAPE_DEFINITION_REPRESENTATION(#4,#10);
#4 = PRODUCT_DEFINITION_SHAPE('','',#5);
#5 = PRODUCT_DEFINITION('design','',#6,#9);
#6 = PRODUCT_DEFINITION_FORMATION('','',#7);
#7 = PRODUCT('Open CASCADE STEP translator 7.9 5',
  'Open CASCADE STEP translator 7.9 5','',(#8));
#8 = PRODUCT_CONTEXT('',#2,'mechanical');
#9 = PRODUCT_DEFINITION_CONTEXT('part definition',#2,'design');
#10 = ADVANCED_BREP_SHAPE_REPRESENTATION('',(#11,#15),#906);
#11 = AXIS2_PLACEMENT_3D('',#12,#13,#14);
#12 = CARTESIAN_POINT('',(0.,0.,0.));
#13 = DIRECTION('',(0.,0.,1.));
#14 = DIRECTION('',(1.,0.,-0.));
#15 = MANIFOLD_SOLID_BREP('',#16);
#16 = CLOSED_SHELL('',(#17,#49,#72,#95,#118,#141,#164,#194,#210,#240,
    #256,#279,#302,#333,#365,#388,#411,#432,#455,#478,#501,#524,#540,
    #563,#586,#609,#633,#664,#688,#705,#727,#739,#756,#773,#795,#812,
    #830,#847,#860,#877,#894));
#17 = ADVANCED_FACE('',(#18),#44,.T.);
#18 = FACE_BOUND('',#19,.T.);
#19 = EDGE_LOOP('',(#20,#30,#38));
#20 = ORIENTED_EDGE('',*,*,#21,.T.);
#21 = EDGE_CURVE('',#22,#24,#26,.T.);
#22 = VERTEX_POINT('',#23);
#23 = CARTESIAN_POINT('',(20.,52.551200866699,5.));
#24 = VERTEX_POINT('',#25);
#25 = CARTESIAN_POINT('',(5.,50.17259979248,10.));
#26 = LINE('',#27,#28);
#27 = CARTESIAN_POINT('',(20.,52.551200866699,5.));
#28 = VECTOR('',#29,1.);
#29 = DIRECTION('',(-0.938127320243,-0.148762043446,0.312709106748));
#30 = ORIENTED_EDGE('',*,*,#31,.F.);
#31 = EDGE_CURVE('',#32,#24,#34,.T.);
#32 = VERTEX_POINT('',#33);
#33 = CARTESIAN_POINT('',(15.,12.417699813843,89.361801147461));
#34 = LINE('',#35,#36);
#35 = CARTESIAN_POINT('',(15.,12.417699813843,89.361801147461));
#36 = VECTOR('',#37,1.);
#37 = DIRECTION('',(-0.113055873447,0.426841319397,-0.897231774702));
#38 = ORIENTED_EDGE('',*,*,#39,.T.);
#39 = EDGE_CURVE('',#32,#22,#40,.T.);
#40 = LINE('',#41,#42);
#41 = CARTESIAN_POINT('',(15.,12.417699813843,89.361801147461));
#42 = VECTOR('',#43,1.);
#43 = DIRECTION('',(5.34442738714E-02,0.428981164337,-0.901731040962));
#44 = PLANE('',#45);
#45 = AXIS2_PLACEMENT_3D('',#46,#47,#48);
#46 = CARTESIAN_POINT('',(13.745715558296,33.477606153199,
    45.093286948155));
#47 = DIRECTION('',(3.228233058609E-06,0.903021534932,0.429595283306));
#48 = DIRECTION('',(2.117582368136E-22,-0.429595283308,0.903021534937));
#49 = ADVANCED_FACE('',(#50),#67,.T.);
#50 = FACE_BOUND('',#51,.T.);
#51 = EDGE_LOOP('',(#52,#53,#61));
#52 = ORIENTED_EDGE('',*,*,#21,.F.);
#53 = ORIENTED_EDGE('',*,*,#54,.T.);
#54 = EDGE_CURVE('',#22,#55,#57,.T.);
#55 = VERTEX_POINT('',#56);
#56 = CARTESIAN_POINT('',(5.,52.551200866699,5.));
#57 = LINE('',#58,#59);
#58 = CARTESIAN_POINT('',(20.,52.551200866699,5.));
#59 = VECTOR('',#60,1.);
#60 = DIRECTION('',(-1.,0.,0.));
#61 = ORIENTED_EDGE('',*,*,#62,.T.);
#62 = EDGE_CURVE('',#55,#24,#63,.T.);
#63 = LINE('',#64,#65);
#64 = CARTESIAN_POINT('',(5.,52.551200866699,5.));
#65 = VECTOR('',#66,1.);
#66 = DIRECTION('',(0.,-0.429587385891,0.90302529194));
#67 = PLANE('',#68);
#68 = AXIS2_PLACEMENT_3D('',#69,#70,#71);
#69 = CARTESIAN_POINT('',(11.36308935412,51.850302801945,6.473340932095)
  );
#70 = DIRECTION('',(0.,0.90302529194,0.429587385891));
#71 = DIRECTION('',(0.,-0.429587385891,0.90302529194));
#72 = ADVANCED_FACE('',(#73),#90,.T.);
#73 = FACE_BOUND('',#74,.T.);
#74 = EDGE_LOOP('',(#75,#76,#84));
#75 = ORIENTED_EDGE('',*,*,#39,.F.);
#76 = ORIENTED_EDGE('',*,*,#77,.F.);
#77 = EDGE_CURVE('',#78,#32,#80,.T.);
#78 = VERTEX_POINT('',#79);
#79 = CARTESIAN_POINT('',(20.,20.551200866699,5.));
#80 = LINE('',#81,#82);
#81 = CARTESIAN_POINT('',(20.,20.551200866699,5.));
#82 = VECTOR('',#83,1.);
#83 = DIRECTION('',(-5.889258086242E-02,-9.580057368999E-02,
    0.993656839155));
#84 = ORIENTED_EDGE('',*,*,#85,.F.);
#85 = EDGE_CURVE('',#22,#78,#86,.T.);
#86 = LINE('',#87,#88);
#87 = CARTESIAN_POINT('',(20.,52.551200866699,5.));
#88 = VECTOR('',#89,1.);
#89 = DIRECTION('',(0.,-1.,0.));
#90 = PLANE('',#91);
#91 = AXIS2_PLACEMENT_3D('',#92,#93,#94);
#92 = CARTESIAN_POINT('',(17.880127450459,26.648213965558,
    40.767253296462));
#93 = DIRECTION('',(0.998248234434,0.,5.916470611438E-02));
#94 = DIRECTION('',(-5.916470611438E-02,0.,0.998248234434));
#95 = ADVANCED_FACE('',(#96),#113,.T.);
#96 = FACE_BOUND('',#97,.T.);
#97 = EDGE_LOOP('',(#98,#106,#112));
#98 = ORIENTED_EDGE('',*,*,#99,.T.);
#99 = EDGE_CURVE('',#32,#100,#102,.T.);
#100 = VERTEX_POINT('',#101);
#101 = CARTESIAN_POINT('',(15.,4.539249897003,87.972602844238));
#102 = LINE('',#103,#104);
#103 = CARTESIAN_POINT('',(15.,12.417699813843,89.361801147461));
#104 = VECTOR('',#105,1.);
#105 = DIRECTION('',(0.,-0.984807432009,-0.173649998158));
#106 = ORIENTED_EDGE('',*,*,#107,.T.);
#107 = EDGE_CURVE('',#100,#78,#108,.T.);
#108 = LINE('',#109,#110);
#109 = CARTESIAN_POINT('',(15.,4.539249897003,87.972602844238));
#110 = VECTOR('',#111,1.);
#111 = DIRECTION('',(5.906586798082E-02,0.189151956418,-0.980169761124)
  );
#112 = ORIENTED_EDGE('',*,*,#77,.T.);
#113 = PLANE('',#114);
#114 = AXIS2_PLACEMENT_3D('',#115,#116,#117);
#115 = CARTESIAN_POINT('',(17.387356816712,14.245618895249,
    48.718996204773));
#116 = DIRECTION('',(0.998253636031,-1.025811279696E-02,
    5.817601974075E-02));
#117 = DIRECTION('',(-5.817908088099E-02,0.,0.998306162732));
#118 = ADVANCED_FACE('',(#119),#136,.T.);
#119 = FACE_BOUND('',#120,.T.);
#120 = EDGE_LOOP('',(#121,#122,#130));
#121 = ORIENTED_EDGE('',*,*,#107,.F.);
#122 = ORIENTED_EDGE('',*,*,#123,.T.);
#123 = EDGE_CURVE('',#100,#124,#126,.T.);
#124 = VERTEX_POINT('',#125);
#125 = CARTESIAN_POINT('',(20.,20.551200866699,0.));
#126 = LINE('',#127,#128);
#127 = CARTESIAN_POINT('',(15.,4.539249897003,87.972602844238));
#128 = VECTOR('',#129,1.);
#129 = DIRECTION('',(5.58299989575E-02,0.178789441189,-0.982302065017));
#130 = ORIENTED_EDGE('',*,*,#131,.F.);
#131 = EDGE_CURVE('',#78,#124,#132,.T.);
#132 = LINE('',#133,#134);
#133 = CARTESIAN_POINT('',(20.,20.551200866699,5.));
#134 = VECTOR('',#135,1.);
#135 = DIRECTION('',(0.,0.,-1.));
#136 = PLANE('',#137);
#137 = AXIS2_PLACEMENT_3D('',#138,#139,#140);
#138 = CARTESIAN_POINT('',(17.569751021613,12.768595369482,
    44.009718997577));
#139 = DIRECTION('',(0.954543341737,-0.298072153588,0.));
#140 = DIRECTION('',(0.298072153588,0.954543341737,0.));
#141 = ADVANCED_FACE('',(#142),#159,.T.);
#142 = FACE_BOUND('',#143,.T.);
#143 = EDGE_LOOP('',(#144,#145,#153));
#144 = ORIENTED_EDGE('',*,*,#123,.F.);
#145 = ORIENTED_EDGE('',*,*,#146,.F.);
#146 = EDGE_CURVE('',#147,#100,#149,.T.);
#147 = VERTEX_POINT('',#148);
#148 = CARTESIAN_POINT('',(15.,16.034799575806,22.778400421143));
#149 = LINE('',#150,#151);
#150 = CARTESIAN_POINT('',(15.,16.034799575806,22.778400421143));
#151 = VECTOR('',#152,1.);
#152 = DIRECTION('',(0.,-0.173648951286,0.984807616602));
#153 = ORIENTED_EDGE('',*,*,#154,.F.);
#154 = EDGE_CURVE('',#124,#147,#155,.T.);
#155 = LINE('',#156,#157);
#156 = CARTESIAN_POINT('',(20.,20.551200866699,0.));
#157 = VECTOR('',#158,1.);
#158 = DIRECTION('',(-0.210490698624,-0.190132092597,0.958928283636));
#159 = PLANE('',#160);
#160 = AXIS2_PLACEMENT_3D('',#161,#162,#163);
#161 = CARTESIAN_POINT('',(16.578054590897,12.473029524464,
    43.872950417184));
#162 = DIRECTION('',(9.799427950209E-02,-0.980067715879,-0.172813175064)
  );
#163 = DIRECTION('',(-3.469446951954E-18,0.173648951286,-0.984807616602)
  );
#164 = ADVANCED_FACE('',(#165),#189,.T.);
#165 = FACE_BOUND('',#166,.T.);
#166 = EDGE_LOOP('',(#167,#175,#183));
#167 = ORIENTED_EDGE('',*,*,#168,.T.);
#168 = EDGE_CURVE('',#147,#169,#171,.T.);
#169 = VERTEX_POINT('',#170);
#170 = CARTESIAN_POINT('',(4.907370090485,4.938640117645,85.70760345459)
  );
#171 = LINE('',#172,#173);
#172 = CARTESIAN_POINT('',(15.,16.034799575806,22.778400421143));
#173 = VECTOR('',#174,1.);
#174 = DIRECTION('',(-0.156010187078,-0.171522579192,0.97274910761));
#175 = ORIENTED_EDGE('',*,*,#176,.T.);
#176 = EDGE_CURVE('',#169,#177,#179,.T.);
#177 = VERTEX_POINT('',#178);
#178 = CARTESIAN_POINT('',(4.907370090485,16.034799575806,
    22.778400421143));
#179 = LINE('',#180,#181);
#180 = CARTESIAN_POINT('',(4.907370090485,4.938640117645,85.70760345459)
  );
#181 = VECTOR('',#182,1.);
#182 = DIRECTION('',(0.,0.173648831651,-0.984807637697));
#183 = ORIENTED_EDGE('',*,*,#184,.T.);
#184 = EDGE_CURVE('',#177,#147,#185,.T.);
#185 = LINE('',#186,#187);
#186 = CARTESIAN_POINT('',(4.907370090485,16.034799575806,
    22.778400421143));
#187 = VECTOR('',#188,1.);
#188 = DIRECTION('',(1.,0.,0.));
#189 = PLANE('',#190);
#190 = AXIS2_PLACEMENT_3D('',#191,#192,#193);
#191 = CARTESIAN_POINT('',(7.628559106815,10.890475249375,
    51.953200155096));
#192 = DIRECTION('',(-4.274049473822E-16,-0.984807637697,-0.173648831651
    ));
#193 = DIRECTION('',(0.,0.173648831651,-0.984807637697));
#194 = ADVANCED_FACE('',(#195),#205,.T.);
#195 = FACE_BOUND('',#196,.T.);
#196 = EDGE_LOOP('',(#197,#198,#199));
#197 = ORIENTED_EDGE('',*,*,#168,.F.);
#198 = ORIENTED_EDGE('',*,*,#146,.T.);
#199 = ORIENTED_EDGE('',*,*,#200,.F.);
#200 = EDGE_CURVE('',#169,#100,#201,.T.);
#201 = LINE('',#202,#203);
#202 = CARTESIAN_POINT('',(4.907370090485,4.938640117645,85.70760345459)
  );
#203 = VECTOR('',#204,1.);
#204 = DIRECTION('',(0.975004027666,-3.858331051743E-02,0.218811503777)
  );
#205 = PLANE('',#206);
#206 = AXIS2_PLACEMENT_3D('',#207,#208,#209);
#207 = CARTESIAN_POINT('',(12.318862182009,9.971884134196,
    57.162756466175));
#208 = DIRECTION('',(-7.691363299718E-07,-0.984807616602,-0.173648951286
    ));
#209 = DIRECTION('',(0.,0.173648951286,-0.984807616602));
#210 = ADVANCED_FACE('',(#211),#235,.T.);
#211 = FACE_BOUND('',#212,.T.);
#212 = EDGE_LOOP('',(#213,#221,#229));
#213 = ORIENTED_EDGE('',*,*,#214,.T.);
#214 = EDGE_CURVE('',#124,#215,#217,.T.);
#215 = VERTEX_POINT('',#216);
#216 = CARTESIAN_POINT('',(5.,18.568399429321,10.));
#217 = LINE('',#218,#219);
#218 = CARTESIAN_POINT('',(20.,20.551200866699,0.));
#219 = VECTOR('',#220,1.);
#220 = DIRECTION('',(-0.827062872186,-0.109326763452,0.551375248124));
#221 = ORIENTED_EDGE('',*,*,#222,.T.);
#222 = EDGE_CURVE('',#215,#223,#225,.T.);
#223 = VERTEX_POINT('',#224);
#224 = CARTESIAN_POINT('',(5.,20.551200866699,0.));
#225 = LINE('',#226,#227);
#226 = CARTESIAN_POINT('',(5.,18.568399429321,10.));
#227 = VECTOR('',#228,1.);
#228 = DIRECTION('',(0.,0.194493738457,-0.980903759653));
#229 = ORIENTED_EDGE('',*,*,#230,.F.);
#230 = EDGE_CURVE('',#124,#223,#231,.T.);
#231 = LINE('',#232,#233);
#232 = CARTESIAN_POINT('',(20.,20.551200866699,0.));
#233 = VECTOR('',#234,1.);
#234 = DIRECTION('',(-1.,0.,0.));
#235 = PLANE('',#236);
#236 = AXIS2_PLACEMENT_3D('',#237,#238,#239);
#237 = CARTESIAN_POINT('',(10.735447191763,19.902994620389,
    3.269143516294));
#238 = DIRECTION('',(-0.,-0.980903759653,-0.194493738457));
#239 = DIRECTION('',(0.,0.194493738457,-0.980903759653));
#240 = ADVANCED_FACE('',(#241),#251,.T.);
#241 = FACE_BOUND('',#242,.T.);
#242 = EDGE_LOOP('',(#243,#244,#245));
#243 = ORIENTED_EDGE('',*,*,#214,.F.);
#244 = ORIENTED_EDGE('',*,*,#154,.T.);
#245 = ORIENTED_EDGE('',*,*,#246,.F.);
#246 = EDGE_CURVE('',#215,#147,#247,.T.);
#247 = LINE('',#248,#249);
#248 = CARTESIAN_POINT('',(5.,18.568399429321,10.));
#249 = VECTOR('',#250,1.);
#250 = DIRECTION('',(0.608911499912,-0.154273808698,0.778091496692));
#251 = PLANE('',#252);
#252 = AXIS2_PLACEMENT_3D('',#253,#254,#255);
#253 = CARTESIAN_POINT('',(13.832685859174,18.4077898288,10.8101928686)
  );
#254 = DIRECTION('',(3.471239948042E-06,-0.980904752997,-0.194488728557)
  );
#255 = DIRECTION('',(0.,0.194488728559,-0.980904753003));
#256 = ADVANCED_FACE('',(#257),#274,.T.);
#257 = FACE_BOUND('',#258,.T.);
#258 = EDGE_LOOP('',(#259,#267,#273));
#259 = ORIENTED_EDGE('',*,*,#260,.T.);
#260 = EDGE_CURVE('',#169,#261,#263,.T.);
#261 = VERTEX_POINT('',#262);
#262 = CARTESIAN_POINT('',(6.899990081787,12.706199645996,
    26.106899261475));
#263 = LINE('',#264,#265);
#264 = CARTESIAN_POINT('',(4.907370090485,4.938640117645,85.70760345459)
  );
#265 = VECTOR('',#266,1.);
#266 = DIRECTION('',(3.313426024209E-02,0.129162780651,-0.991069673077)
  );
#267 = ORIENTED_EDGE('',*,*,#268,.T.);
#268 = EDGE_CURVE('',#261,#177,#269,.T.);
#269 = LINE('',#270,#271);
#270 = CARTESIAN_POINT('',(6.899990081787,12.706199645996,
    26.106899261475));
#271 = VECTOR('',#272,1.);
#272 = DIRECTION('',(-0.389818954143,0.651178523282,-0.65115874701));
#273 = ORIENTED_EDGE('',*,*,#176,.F.);
#274 = PLANE('',#275);
#275 = AXIS2_PLACEMENT_3D('',#276,#277,#278);
#276 = CARTESIAN_POINT('',(5.410730047326,9.86546479358,53.838471263419)
  );
#277 = DIRECTION('',(0.804612121654,0.584779516347,0.103112806908));
#278 = DIRECTION('',(-0.587913289185,0.808923954646,6.938893903907E-18)
  );
#279 = ADVANCED_FACE('',(#280),#297,.T.);
#280 = FACE_BOUND('',#281,.T.);
#281 = EDGE_LOOP('',(#282,#283,#291));
#282 = ORIENTED_EDGE('',*,*,#260,.F.);
#283 = ORIENTED_EDGE('',*,*,#284,.T.);
#284 = EDGE_CURVE('',#169,#285,#287,.T.);
#285 = VERTEX_POINT('',#286);
#286 = CARTESIAN_POINT('',(6.899990081787,2.279659986496,85.238700866699
    ));
#287 = LINE('',#288,#289);
#288 = CARTESIAN_POINT('',(4.907370090485,4.938640117645,85.70760345459)
  );
#289 = VECTOR('',#290,1.);
#290 = DIRECTION('',(0.593805361366,-0.792382222668,-0.139734054593));
#291 = ORIENTED_EDGE('',*,*,#292,.T.);
#292 = EDGE_CURVE('',#285,#261,#293,.T.);
#293 = LINE('',#294,#295);
#294 = CARTESIAN_POINT('',(6.899990081787,2.279659986496,85.238700866699
    ));
#295 = VECTOR('',#296,1.);
#296 = DIRECTION('',(0.,0.173648300725,-0.984807731314));
#297 = PLANE('',#298);
#298 = AXIS2_PLACEMENT_3D('',#299,#300,#301);
#299 = CARTESIAN_POINT('',(6.387925543559,8.034626569195,56.596404935559
    ));
#300 = DIRECTION('',(0.804608720267,0.584784110837,0.103113291974));
#301 = DIRECTION('',(-0.587917938018,0.808920575926,0.));
#302 = ADVANCED_FACE('',(#303),#328,.T.);
#303 = FACE_BOUND('',#304,.T.);
#304 = EDGE_LOOP('',(#305,#306,#314,#322));
#305 = ORIENTED_EDGE('',*,*,#200,.T.);
#306 = ORIENTED_EDGE('',*,*,#307,.F.);
#307 = EDGE_CURVE('',#308,#100,#310,.T.);
#308 = VERTEX_POINT('',#309);
#309 = CARTESIAN_POINT('',(-15.,4.539249897003,87.972602844238));
#310 = LINE('',#311,#312);
#311 = CARTESIAN_POINT('',(-15.,4.539249897003,87.972602844238));
#312 = VECTOR('',#313,1.);
#313 = DIRECTION('',(1.,0.,0.));
#314 = ORIENTED_EDGE('',*,*,#315,.T.);
#315 = EDGE_CURVE('',#308,#316,#318,.T.);
#316 = VERTEX_POINT('',#317);
#317 = CARTESIAN_POINT('',(-4.907370090485,4.938640117645,85.70760345459
    ));
#318 = LINE('',#319,#320);
#319 = CARTESIAN_POINT('',(-15.,4.539249897003,87.972602844238));
#320 = VECTOR('',#321,1.);
#321 = DIRECTION('',(0.975004027666,3.858331051743E-02,-0.218811503777)
  );
#322 = ORIENTED_EDGE('',*,*,#323,.T.);
#323 = EDGE_CURVE('',#316,#169,#324,.T.);
#324 = LINE('',#325,#326);
#325 = CARTESIAN_POINT('',(-4.907370090485,4.938640117645,85.70760345459
    ));
#326 = VECTOR('',#327,1.);
#327 = DIRECTION('',(1.,0.,0.));
#328 = PLANE('',#329);
#329 = AXIS2_PLACEMENT_3D('',#330,#331,#332);
#330 = CARTESIAN_POINT('',(0.,4.672337849571,87.217841921825));
#331 = DIRECTION('',(-0.,-0.984807030508,-0.173652275141));
#332 = DIRECTION('',(0.,0.173652275141,-0.984807030508));
#333 = ADVANCED_FACE('',(#334),#360,.T.);
#334 = FACE_BOUND('',#335,.T.);
#335 = EDGE_LOOP('',(#336,#346,#354));
#336 = ORIENTED_EDGE('',*,*,#337,.T.);
#337 = EDGE_CURVE('',#338,#340,#342,.T.);
#338 = VERTEX_POINT('',#339);
#339 = CARTESIAN_POINT('',(-20.,52.551200866699,5.));
#340 = VERTEX_POINT('',#341);
#341 = CARTESIAN_POINT('',(-5.,50.17259979248,10.));
#342 = LINE('',#343,#344);
#343 = CARTESIAN_POINT('',(-20.,52.551200866699,5.));
#344 = VECTOR('',#345,1.);
#345 = DIRECTION('',(0.938127320243,-0.148762043446,0.312709106748));
#346 = ORIENTED_EDGE('',*,*,#347,.T.);
#347 = EDGE_CURVE('',#340,#348,#350,.T.);
#348 = VERTEX_POINT('',#349);
#349 = CARTESIAN_POINT('',(-5.,52.551200866699,5.));
#350 = LINE('',#351,#352);
#351 = CARTESIAN_POINT('',(-5.,50.17259979248,10.));
#352 = VECTOR('',#353,1.);
#353 = DIRECTION('',(0.,0.429587385891,-0.90302529194));
#354 = ORIENTED_EDGE('',*,*,#355,.T.);
#355 = EDGE_CURVE('',#348,#338,#356,.T.);
#356 = LINE('',#357,#358);
#357 = CARTESIAN_POINT('',(-5.,52.551200866699,5.));
#358 = VECTOR('',#359,1.);
#359 = DIRECTION('',(-1.,0.,0.));
#360 = PLANE('',#361);
#361 = AXIS2_PLACEMENT_3D('',#362,#363,#364);
#362 = CARTESIAN_POINT('',(-11.36308935412,51.850302801945,
    6.473340932095));
#363 = DIRECTION('',(0.,0.90302529194,0.429587385891));
#364 = DIRECTION('',(0.,-0.429587385891,0.90302529194));
#365 = ADVANCED_FACE('',(#366),#383,.T.);
#366 = FACE_BOUND('',#367,.T.);
#367 = EDGE_LOOP('',(#368,#369,#377));
#368 = ORIENTED_EDGE('',*,*,#337,.F.);
#369 = ORIENTED_EDGE('',*,*,#370,.T.);
#370 = EDGE_CURVE('',#338,#371,#373,.T.);
#371 = VERTEX_POINT('',#372);
#372 = CARTESIAN_POINT('',(-15.,12.417699813843,89.361801147461));
#373 = LINE('',#374,#375);
#374 = CARTESIAN_POINT('',(-20.,52.551200866699,5.));
#375 = VECTOR('',#376,1.);
#376 = DIRECTION('',(5.34442738714E-02,-0.428981164337,0.901731040962));
#377 = ORIENTED_EDGE('',*,*,#378,.F.);
#378 = EDGE_CURVE('',#340,#371,#379,.T.);
#379 = LINE('',#380,#381);
#380 = CARTESIAN_POINT('',(-5.,50.17259979248,10.));
#381 = VECTOR('',#382,1.);
#382 = DIRECTION('',(-0.113055873447,-0.426841319397,0.897231774702));
#383 = PLANE('',#384);
#384 = AXIS2_PLACEMENT_3D('',#385,#386,#387);
#385 = CARTESIAN_POINT('',(-13.74571555829,33.477606153199,
    45.093286948155));
#386 = DIRECTION('',(-3.228233058434E-06,0.903021534932,0.429595283306)
  );
#387 = DIRECTION('',(0.,-0.429595283308,0.903021534937));
#388 = ADVANCED_FACE('',(#389),#406,.T.);
#389 = FACE_BOUND('',#390,.T.);
#390 = EDGE_LOOP('',(#391,#399,#405));
#391 = ORIENTED_EDGE('',*,*,#392,.F.);
#392 = EDGE_CURVE('',#393,#338,#395,.T.);
#393 = VERTEX_POINT('',#394);
#394 = CARTESIAN_POINT('',(-20.,20.551200866699,5.));
#395 = LINE('',#396,#397);
#396 = CARTESIAN_POINT('',(-20.,20.551200866699,5.));
#397 = VECTOR('',#398,1.);
#398 = DIRECTION('',(0.,1.,0.));
#399 = ORIENTED_EDGE('',*,*,#400,.T.);
#400 = EDGE_CURVE('',#393,#371,#401,.T.);
#401 = LINE('',#402,#403);
#402 = CARTESIAN_POINT('',(-20.,20.551200866699,5.));
#403 = VECTOR('',#404,1.);
#404 = DIRECTION('',(5.889258086242E-02,-9.580057368999E-02,
    0.993656839155));
#405 = ORIENTED_EDGE('',*,*,#370,.F.);
#406 = PLANE('',#407);
#407 = AXIS2_PLACEMENT_3D('',#408,#409,#410);
#408 = CARTESIAN_POINT('',(-17.88012745045,26.648213965558,
    40.767253296462));
#409 = DIRECTION('',(-0.998248234434,-0.,5.916470611438E-02));
#410 = DIRECTION('',(-5.916470611438E-02,0.,-0.998248234434));
#411 = ADVANCED_FACE('',(#412),#427,.T.);
#412 = FACE_BOUND('',#413,.T.);
#413 = EDGE_LOOP('',(#414,#415,#421));
#414 = ORIENTED_EDGE('',*,*,#400,.F.);
#415 = ORIENTED_EDGE('',*,*,#416,.F.);
#416 = EDGE_CURVE('',#308,#393,#417,.T.);
#417 = LINE('',#418,#419);
#418 = CARTESIAN_POINT('',(-15.,4.539249897003,87.972602844238));
#419 = VECTOR('',#420,1.);
#420 = DIRECTION('',(-5.906586798082E-02,0.189151956418,-0.980169761124)
  );
#421 = ORIENTED_EDGE('',*,*,#422,.F.);
#422 = EDGE_CURVE('',#371,#308,#423,.T.);
#423 = LINE('',#424,#425);
#424 = CARTESIAN_POINT('',(-15.,12.417699813843,89.361801147461));
#425 = VECTOR('',#426,1.);
#426 = DIRECTION('',(0.,-0.984807432009,-0.173649998158));
#427 = PLANE('',#428);
#428 = AXIS2_PLACEMENT_3D('',#429,#430,#431);
#429 = CARTESIAN_POINT('',(-17.38735681671,14.245618895249,
    48.718996204773));
#430 = DIRECTION('',(-0.998253636031,-1.025811279695E-02,
    5.817601974075E-02));
#431 = DIRECTION('',(-5.817908088099E-02,-1.084202172486E-19,
    -0.998306162732));
#432 = ADVANCED_FACE('',(#433),#450,.T.);
#433 = FACE_BOUND('',#434,.T.);
#434 = EDGE_LOOP('',(#435,#443,#449));
#435 = ORIENTED_EDGE('',*,*,#436,.F.);
#436 = EDGE_CURVE('',#437,#393,#439,.T.);
#437 = VERTEX_POINT('',#438);
#438 = CARTESIAN_POINT('',(-20.,20.551200866699,0.));
#439 = LINE('',#440,#441);
#440 = CARTESIAN_POINT('',(-20.,20.551200866699,0.));
#441 = VECTOR('',#442,1.);
#442 = DIRECTION('',(0.,0.,1.));
#443 = ORIENTED_EDGE('',*,*,#444,.F.);
#444 = EDGE_CURVE('',#308,#437,#445,.T.);
#445 = LINE('',#446,#447);
#446 = CARTESIAN_POINT('',(-15.,4.539249897003,87.972602844238));
#447 = VECTOR('',#448,1.);
#448 = DIRECTION('',(-5.58299989575E-02,0.178789441189,-0.982302065017)
  );
#449 = ORIENTED_EDGE('',*,*,#416,.T.);
#450 = PLANE('',#451);
#451 = AXIS2_PLACEMENT_3D('',#452,#453,#454);
#452 = CARTESIAN_POINT('',(-17.56975102161,12.768595369482,
    44.009718997577));
#453 = DIRECTION('',(-0.954543341737,-0.298072153588,-1.327460272794E-14
    ));
#454 = DIRECTION('',(0.298072153588,-0.954543341737,0.));
#455 = ADVANCED_FACE('',(#456),#473,.T.);
#456 = FACE_BOUND('',#457,.T.);
#457 = EDGE_LOOP('',(#458,#459,#467));
#458 = ORIENTED_EDGE('',*,*,#444,.T.);
#459 = ORIENTED_EDGE('',*,*,#460,.T.);
#460 = EDGE_CURVE('',#437,#461,#463,.T.);
#461 = VERTEX_POINT('',#462);
#462 = CARTESIAN_POINT('',(-15.,16.034799575806,22.778400421143));
#463 = LINE('',#464,#465);
#464 = CARTESIAN_POINT('',(-20.,20.551200866699,0.));
#465 = VECTOR('',#466,1.);
#466 = DIRECTION('',(0.210490698624,-0.190132092597,0.958928283636));
#467 = ORIENTED_EDGE('',*,*,#468,.T.);
#468 = EDGE_CURVE('',#461,#308,#469,.T.);
#469 = LINE('',#470,#471);
#470 = CARTESIAN_POINT('',(-15.,16.034799575806,22.778400421143));
#471 = VECTOR('',#472,1.);
#472 = DIRECTION('',(0.,-0.173648951286,0.984807616602));
#473 = PLANE('',#474);
#474 = AXIS2_PLACEMENT_3D('',#475,#476,#477);
#475 = CARTESIAN_POINT('',(-16.57805459089,12.473029524464,
    43.872950417184));
#476 = DIRECTION('',(-9.799427950209E-02,-0.980067715879,-0.172813175064
    ));
#477 = DIRECTION('',(0.,0.173648951286,-0.984807616602));
#478 = ADVANCED_FACE('',(#479),#496,.T.);
#479 = FACE_BOUND('',#480,.T.);
#480 = EDGE_LOOP('',(#481,#489,#495));
#481 = ORIENTED_EDGE('',*,*,#482,.T.);
#482 = EDGE_CURVE('',#437,#483,#485,.T.);
#483 = VERTEX_POINT('',#484);
#484 = CARTESIAN_POINT('',(-5.,18.568399429321,10.));
#485 = LINE('',#486,#487);
#486 = CARTESIAN_POINT('',(-20.,20.551200866699,0.));
#487 = VECTOR('',#488,1.);
#488 = DIRECTION('',(0.827062872186,-0.109326763452,0.551375248124));
#489 = ORIENTED_EDGE('',*,*,#490,.F.);
#490 = EDGE_CURVE('',#461,#483,#491,.T.);
#491 = LINE('',#492,#493);
#492 = CARTESIAN_POINT('',(-15.,16.034799575806,22.778400421143));
#493 = VECTOR('',#494,1.);
#494 = DIRECTION('',(0.608911499912,0.154273808698,-0.778091496692));
#495 = ORIENTED_EDGE('',*,*,#460,.F.);
#496 = PLANE('',#497);
#497 = AXIS2_PLACEMENT_3D('',#498,#499,#500);
#498 = CARTESIAN_POINT('',(-13.83268585917,18.4077898288,10.8101928686)
  );
#499 = DIRECTION('',(-3.471239947986E-06,-0.980904752997,-0.194488728557
    ));
#500 = DIRECTION('',(0.,0.194488728559,-0.980904753003));
#501 = ADVANCED_FACE('',(#502),#519,.T.);
#502 = FACE_BOUND('',#503,.T.);
#503 = EDGE_LOOP('',(#504,#505,#513));
#504 = ORIENTED_EDGE('',*,*,#482,.F.);
#505 = ORIENTED_EDGE('',*,*,#506,.F.);
#506 = EDGE_CURVE('',#507,#437,#509,.T.);
#507 = VERTEX_POINT('',#508);
#508 = CARTESIAN_POINT('',(-5.,20.551200866699,0.));
#509 = LINE('',#510,#511);
#510 = CARTESIAN_POINT('',(-5.,20.551200866699,0.));
#511 = VECTOR('',#512,1.);
#512 = DIRECTION('',(-1.,0.,0.));
#513 = ORIENTED_EDGE('',*,*,#514,.T.);
#514 = EDGE_CURVE('',#507,#483,#515,.T.);
#515 = LINE('',#516,#517);
#516 = CARTESIAN_POINT('',(-5.,20.551200866699,0.));
#517 = VECTOR('',#518,1.);
#518 = DIRECTION('',(0.,-0.194493738457,0.980903759653));
#519 = PLANE('',#520);
#520 = AXIS2_PLACEMENT_3D('',#521,#522,#523);
#521 = CARTESIAN_POINT('',(-10.73544719176,19.902994620389,
    3.269143516294));
#522 = DIRECTION('',(-0.,-0.980903759653,-0.194493738457));
#523 = DIRECTION('',(0.,0.194493738457,-0.980903759653));
#524 = ADVANCED_FACE('',(#525),#535,.T.);
#525 = FACE_BOUND('',#526,.T.);
#526 = EDGE_LOOP('',(#527,#533,#534));
#527 = ORIENTED_EDGE('',*,*,#528,.T.);
#528 = EDGE_CURVE('',#461,#316,#529,.T.);
#529 = LINE('',#530,#531);
#530 = CARTESIAN_POINT('',(-15.,16.034799575806,22.778400421143));
#531 = VECTOR('',#532,1.);
#532 = DIRECTION('',(0.156010187078,-0.171522579192,0.97274910761));
#533 = ORIENTED_EDGE('',*,*,#315,.F.);
#534 = ORIENTED_EDGE('',*,*,#468,.F.);
#535 = PLANE('',#536);
#536 = AXIS2_PLACEMENT_3D('',#537,#538,#539);
#537 = CARTESIAN_POINT('',(-12.318862182,9.971884134196,57.162756466175)
  );
#538 = DIRECTION('',(7.691363295277E-07,-0.984807616602,-0.173648951286)
  );
#539 = DIRECTION('',(-2.64697796017E-23,0.173648951286,-0.984807616602)
  );
#540 = ADVANCED_FACE('',(#541),#558,.T.);
#541 = FACE_BOUND('',#542,.T.);
#542 = EDGE_LOOP('',(#543,#544,#552));
#543 = ORIENTED_EDGE('',*,*,#528,.F.);
#544 = ORIENTED_EDGE('',*,*,#545,.F.);
#545 = EDGE_CURVE('',#546,#461,#548,.T.);
#546 = VERTEX_POINT('',#547);
#547 = CARTESIAN_POINT('',(-4.907370090485,16.034799575806,
    22.778400421143));
#548 = LINE('',#549,#550);
#549 = CARTESIAN_POINT('',(-4.907370090485,16.034799575806,
    22.778400421143));
#550 = VECTOR('',#551,1.);
#551 = DIRECTION('',(-1.,0.,0.));
#552 = ORIENTED_EDGE('',*,*,#553,.T.);
#553 = EDGE_CURVE('',#546,#316,#554,.T.);
#554 = LINE('',#555,#556);
#555 = CARTESIAN_POINT('',(-4.907370090485,16.034799575806,
    22.778400421143));
#556 = VECTOR('',#557,1.);
#557 = DIRECTION('',(0.,-0.173648831651,0.984807637697));
#558 = PLANE('',#559);
#559 = AXIS2_PLACEMENT_3D('',#560,#561,#562);
#560 = CARTESIAN_POINT('',(-7.628559106815,10.890475249375,
    51.953200155096));
#561 = DIRECTION('',(3.164029737104E-16,-0.984807637697,-0.173648831651)
  );
#562 = DIRECTION('',(0.,0.173648831651,-0.984807637697));
#563 = ADVANCED_FACE('',(#564),#581,.T.);
#564 = FACE_BOUND('',#565,.T.);
#565 = EDGE_LOOP('',(#566,#574,#575));
#566 = ORIENTED_EDGE('',*,*,#567,.T.);
#567 = EDGE_CURVE('',#568,#316,#570,.T.);
#568 = VERTEX_POINT('',#569);
#569 = CARTESIAN_POINT('',(-6.899990081787,12.706199645996,
    26.106899261475));
#570 = LINE('',#571,#572);
#571 = CARTESIAN_POINT('',(-6.899990081787,12.706199645996,
    26.106899261475));
#572 = VECTOR('',#573,1.);
#573 = DIRECTION('',(3.313426024209E-02,-0.129162780651,0.991069673077)
  );
#574 = ORIENTED_EDGE('',*,*,#553,.F.);
#575 = ORIENTED_EDGE('',*,*,#576,.T.);
#576 = EDGE_CURVE('',#546,#568,#577,.T.);
#577 = LINE('',#578,#579);
#578 = CARTESIAN_POINT('',(-4.907370090485,16.034799575806,
    22.778400421143));
#579 = VECTOR('',#580,1.);
#580 = DIRECTION('',(-0.389818954143,-0.651178523282,0.65115874701));
#581 = PLANE('',#582);
#582 = AXIS2_PLACEMENT_3D('',#583,#584,#585);
#583 = CARTESIAN_POINT('',(-5.410730047326,9.86546479358,53.838471263419
    ));
#584 = DIRECTION('',(-0.804612121654,0.584779516347,0.103112806908));
#585 = DIRECTION('',(-0.587913289185,-0.808923954646,6.938893903907E-18)
  );
#586 = ADVANCED_FACE('',(#587),#604,.T.);
#587 = FACE_BOUND('',#588,.T.);
#588 = EDGE_LOOP('',(#589,#590,#598));
#589 = ORIENTED_EDGE('',*,*,#567,.F.);
#590 = ORIENTED_EDGE('',*,*,#591,.T.);
#591 = EDGE_CURVE('',#568,#592,#594,.T.);
#592 = VERTEX_POINT('',#593);
#593 = CARTESIAN_POINT('',(-6.899990081787,2.279659986496,
    85.238700866699));
#594 = LINE('',#595,#596);
#595 = CARTESIAN_POINT('',(-6.899990081787,12.706199645996,
    26.106899261475));
#596 = VECTOR('',#597,1.);
#597 = DIRECTION('',(0.,-0.173648300725,0.984807731314));
#598 = ORIENTED_EDGE('',*,*,#599,.T.);
#599 = EDGE_CURVE('',#592,#316,#600,.T.);
#600 = LINE('',#601,#602);
#601 = CARTESIAN_POINT('',(-6.899990081787,2.279659986496,
    85.238700866699));
#602 = VECTOR('',#603,1.);
#603 = DIRECTION('',(0.593805361366,0.792382222668,0.139734054593));
#604 = PLANE('',#605);
#605 = AXIS2_PLACEMENT_3D('',#606,#607,#608);
#606 = CARTESIAN_POINT('',(-6.387925543559,8.034626569195,
    56.596404935559));
#607 = DIRECTION('',(-0.804608720267,0.584784110837,0.103113291974));
#608 = DIRECTION('',(-0.587917938018,-0.808920575926,6.938893903907E-18)
  );
#609 = ADVANCED_FACE('',(#610),#628,.T.);
#610 = FACE_BOUND('',#611,.T.);
#611 = EDGE_LOOP('',(#612,#620,#621,#622));
#612 = ORIENTED_EDGE('',*,*,#613,.T.);
#613 = EDGE_CURVE('',#614,#22,#616,.T.);
#614 = VERTEX_POINT('',#615);
#615 = CARTESIAN_POINT('',(20.,52.551200866699,0.));
#616 = LINE('',#617,#618);
#617 = CARTESIAN_POINT('',(20.,52.551200866699,0.));
#618 = VECTOR('',#619,1.);
#619 = DIRECTION('',(0.,0.,1.));
#620 = ORIENTED_EDGE('',*,*,#85,.T.);
#621 = ORIENTED_EDGE('',*,*,#131,.T.);
#622 = ORIENTED_EDGE('',*,*,#623,.F.);
#623 = EDGE_CURVE('',#614,#124,#624,.T.);
#624 = LINE('',#625,#626);
#625 = CARTESIAN_POINT('',(20.,52.551200866699,0.));
#626 = VECTOR('',#627,1.);
#627 = DIRECTION('',(0.,-1.,0.));
#628 = PLANE('',#629);
#629 = AXIS2_PLACEMENT_3D('',#630,#631,#632);
#630 = CARTESIAN_POINT('',(20.,36.551200866699,2.5));
#631 = DIRECTION('',(1.,0.,0.));
#632 = DIRECTION('',(-0.,0.,1.));
#633 = ADVANCED_FACE('',(#634),#659,.T.);
#634 = FACE_BOUND('',#635,.T.);
#635 = EDGE_LOOP('',(#636,#644,#645,#653));
#636 = ORIENTED_EDGE('',*,*,#637,.T.);
#637 = EDGE_CURVE('',#638,#507,#640,.T.);
#638 = VERTEX_POINT('',#639);
#639 = CARTESIAN_POINT('',(-5.,52.551200866699,0.));
#640 = LINE('',#641,#642);
#641 = CARTESIAN_POINT('',(-5.,52.551200866699,0.));
#642 = VECTOR('',#643,1.);
#643 = DIRECTION('',(0.,-1.,0.));
#644 = ORIENTED_EDGE('',*,*,#506,.T.);
#645 = ORIENTED_EDGE('',*,*,#646,.F.);
#646 = EDGE_CURVE('',#647,#437,#649,.T.);
#647 = VERTEX_POINT('',#648);
#648 = CARTESIAN_POINT('',(-20.,52.551200866699,0.));
#649 = LINE('',#650,#651);
#650 = CARTESIAN_POINT('',(-20.,52.551200866699,0.));
#651 = VECTOR('',#652,1.);
#652 = DIRECTION('',(0.,-1.,0.));
#653 = ORIENTED_EDGE('',*,*,#654,.T.);
#654 = EDGE_CURVE('',#647,#638,#655,.T.);
#655 = LINE('',#656,#657);
#656 = CARTESIAN_POINT('',(-20.,52.551200866699,0.));
#657 = VECTOR('',#658,1.);
#658 = DIRECTION('',(1.,0.,0.));
#659 = PLANE('',#660);
#660 = AXIS2_PLACEMENT_3D('',#661,#662,#663);
#661 = CARTESIAN_POINT('',(-12.5,36.551200866699,0.));
#662 = DIRECTION('',(-0.,-0.,-1.));
#663 = DIRECTION('',(-1.,0.,0.));
#664 = ADVANCED_FACE('',(#665),#683,.T.);
#665 = FACE_BOUND('',#666,.T.);
#666 = EDGE_LOOP('',(#667,#668,#669,#677));
#667 = ORIENTED_EDGE('',*,*,#623,.T.);
#668 = ORIENTED_EDGE('',*,*,#230,.T.);
#669 = ORIENTED_EDGE('',*,*,#670,.T.);
#670 = EDGE_CURVE('',#223,#671,#673,.T.);
#671 = VERTEX_POINT('',#672);
#672 = CARTESIAN_POINT('',(5.,52.551200866699,0.));
#673 = LINE('',#674,#675);
#674 = CARTESIAN_POINT('',(5.,20.551200866699,0.));
#675 = VECTOR('',#676,1.);
#676 = DIRECTION('',(0.,1.,0.));
#677 = ORIENTED_EDGE('',*,*,#678,.T.);
#678 = EDGE_CURVE('',#671,#614,#679,.T.);
#679 = LINE('',#680,#681);
#680 = CARTESIAN_POINT('',(5.,52.551200866699,0.));
#681 = VECTOR('',#682,1.);
#682 = DIRECTION('',(1.,0.,0.));
#683 = PLANE('',#684);
#684 = AXIS2_PLACEMENT_3D('',#685,#686,#687);
#685 = CARTESIAN_POINT('',(12.5,36.551200866699,0.));
#686 = DIRECTION('',(-0.,-0.,-1.));
#687 = DIRECTION('',(-1.,0.,0.));
#688 = ADVANCED_FACE('',(#689),#700,.T.);
#689 = FACE_BOUND('',#690,.T.);
#690 = EDGE_LOOP('',(#691,#697,#698,#699));
#691 = ORIENTED_EDGE('',*,*,#692,.T.);
#692 = EDGE_CURVE('',#338,#647,#693,.T.);
#693 = LINE('',#694,#695);
#694 = CARTESIAN_POINT('',(-20.,52.551200866699,5.));
#695 = VECTOR('',#696,1.);
#696 = DIRECTION('',(0.,0.,-1.));
#697 = ORIENTED_EDGE('',*,*,#646,.T.);
#698 = ORIENTED_EDGE('',*,*,#436,.T.);
#699 = ORIENTED_EDGE('',*,*,#392,.T.);
#700 = PLANE('',#701);
#701 = AXIS2_PLACEMENT_3D('',#702,#703,#704);
#702 = CARTESIAN_POINT('',(-20.,36.551200866699,2.5));
#703 = DIRECTION('',(-1.,-0.,-0.));
#704 = DIRECTION('',(0.,0.,-1.));
#705 = ADVANCED_FACE('',(#706),#722,.T.);
#706 = FACE_BOUND('',#707,.T.);
#707 = EDGE_LOOP('',(#708,#709,#715,#716));
#708 = ORIENTED_EDGE('',*,*,#378,.T.);
#709 = ORIENTED_EDGE('',*,*,#710,.T.);
#710 = EDGE_CURVE('',#371,#32,#711,.T.);
#711 = LINE('',#712,#713);
#712 = CARTESIAN_POINT('',(-15.,12.417699813843,89.361801147461));
#713 = VECTOR('',#714,1.);
#714 = DIRECTION('',(1.,0.,0.));
#715 = ORIENTED_EDGE('',*,*,#31,.T.);
#716 = ORIENTED_EDGE('',*,*,#717,.T.);
#717 = EDGE_CURVE('',#24,#340,#718,.T.);
#718 = LINE('',#719,#720);
#719 = CARTESIAN_POINT('',(5.,50.17259979248,10.));
#720 = VECTOR('',#721,1.);
#721 = DIRECTION('',(-1.,0.,0.));
#722 = PLANE('',#723);
#723 = AXIS2_PLACEMENT_3D('',#724,#725,#726);
#724 = CARTESIAN_POINT('',(-2.620675637959E-16,29.554520042135,
    53.339750499014));
#725 = DIRECTION('',(0.,0.903021377135,0.429595615011));
#726 = DIRECTION('',(0.,-0.429595615011,0.903021377135));
#727 = ADVANCED_FACE('',(#728),#734,.T.);
#728 = FACE_BOUND('',#729,.T.);
#729 = EDGE_LOOP('',(#730,#731,#732,#733));
#730 = ORIENTED_EDGE('',*,*,#99,.F.);
#731 = ORIENTED_EDGE('',*,*,#710,.F.);
#732 = ORIENTED_EDGE('',*,*,#422,.T.);
#733 = ORIENTED_EDGE('',*,*,#307,.T.);
#734 = PLANE('',#735);
#735 = AXIS2_PLACEMENT_3D('',#736,#737,#738);
#736 = CARTESIAN_POINT('',(0.,8.478474855423,88.66720199585));
#737 = DIRECTION('',(0.,-0.173649998158,0.984807432009));
#738 = DIRECTION('',(0.,0.984807432009,0.173649998158));
#739 = ADVANCED_FACE('',(#740),#751,.T.);
#740 = FACE_BOUND('',#741,.T.);
#741 = EDGE_LOOP('',(#742,#743,#749,#750));
#742 = ORIENTED_EDGE('',*,*,#355,.F.);
#743 = ORIENTED_EDGE('',*,*,#744,.T.);
#744 = EDGE_CURVE('',#348,#638,#745,.T.);
#745 = LINE('',#746,#747);
#746 = CARTESIAN_POINT('',(-5.,52.551200866699,5.));
#747 = VECTOR('',#748,1.);
#748 = DIRECTION('',(0.,0.,-1.));
#749 = ORIENTED_EDGE('',*,*,#654,.F.);
#750 = ORIENTED_EDGE('',*,*,#692,.F.);
#751 = PLANE('',#752);
#752 = AXIS2_PLACEMENT_3D('',#753,#754,#755);
#753 = CARTESIAN_POINT('',(-12.5,52.551200866699,2.5));
#754 = DIRECTION('',(0.,1.,0.));
#755 = DIRECTION('',(0.,-0.,1.));
#756 = ADVANCED_FACE('',(#757),#768,.T.);
#757 = FACE_BOUND('',#758,.T.);
#758 = EDGE_LOOP('',(#759,#760,#761,#762));
#759 = ORIENTED_EDGE('',*,*,#54,.F.);
#760 = ORIENTED_EDGE('',*,*,#613,.F.);
#761 = ORIENTED_EDGE('',*,*,#678,.F.);
#762 = ORIENTED_EDGE('',*,*,#763,.T.);
#763 = EDGE_CURVE('',#671,#55,#764,.T.);
#764 = LINE('',#765,#766);
#765 = CARTESIAN_POINT('',(5.,52.551200866699,0.));
#766 = VECTOR('',#767,1.);
#767 = DIRECTION('',(0.,0.,1.));
#768 = PLANE('',#769);
#769 = AXIS2_PLACEMENT_3D('',#770,#771,#772);
#770 = CARTESIAN_POINT('',(12.5,52.551200866699,2.5));
#771 = DIRECTION('',(0.,1.,0.));
#772 = DIRECTION('',(0.,-0.,1.));
#773 = ADVANCED_FACE('',(#774),#790,.T.);
#774 = FACE_BOUND('',#775,.T.);
#775 = EDGE_LOOP('',(#776,#777,#783,#784));
#776 = ORIENTED_EDGE('',*,*,#490,.T.);
#777 = ORIENTED_EDGE('',*,*,#778,.T.);
#778 = EDGE_CURVE('',#483,#215,#779,.T.);
#779 = LINE('',#780,#781);
#780 = CARTESIAN_POINT('',(-5.,18.568399429321,10.));
#781 = VECTOR('',#782,1.);
#782 = DIRECTION('',(1.,0.,0.));
#783 = ORIENTED_EDGE('',*,*,#246,.T.);
#784 = ORIENTED_EDGE('',*,*,#785,.T.);
#785 = EDGE_CURVE('',#147,#461,#786,.T.);
#786 = LINE('',#787,#788);
#787 = CARTESIAN_POINT('',(15.,16.034799575806,22.778400421143));
#788 = VECTOR('',#789,1.);
#789 = DIRECTION('',(-1.,0.,0.));
#790 = PLANE('',#791);
#791 = AXIS2_PLACEMENT_3D('',#792,#793,#794);
#792 = CARTESIAN_POINT('',(-7.803285348158E-16,16.953794901587,
    18.143378737788));
#793 = DIRECTION('',(-0.,-0.980905271238,-0.19448611482));
#794 = DIRECTION('',(0.,0.19448611482,-0.980905271238));
#795 = ADVANCED_FACE('',(#796),#807,.F.);
#796 = FACE_BOUND('',#797,.T.);
#797 = EDGE_LOOP('',(#798,#799,#800,#801));
#798 = ORIENTED_EDGE('',*,*,#545,.T.);
#799 = ORIENTED_EDGE('',*,*,#785,.F.);
#800 = ORIENTED_EDGE('',*,*,#184,.F.);
#801 = ORIENTED_EDGE('',*,*,#802,.T.);
#802 = EDGE_CURVE('',#177,#546,#803,.T.);
#803 = LINE('',#804,#805);
#804 = CARTESIAN_POINT('',(4.907370090485,16.034799575806,
    22.778400421143));
#805 = VECTOR('',#806,1.);
#806 = DIRECTION('',(-1.,0.,0.));
#807 = PLANE('',#808);
#808 = AXIS2_PLACEMENT_3D('',#809,#810,#811);
#809 = CARTESIAN_POINT('',(0.,16.034799575806,22.778400421143));
#810 = DIRECTION('',(-0.,-0.,-1.));
#811 = DIRECTION('',(-1.,0.,0.));
#812 = ADVANCED_FACE('',(#813),#825,.T.);
#813 = FACE_BOUND('',#814,.T.);
#814 = EDGE_LOOP('',(#815,#816,#817,#818,#819));
#815 = ORIENTED_EDGE('',*,*,#62,.F.);
#816 = ORIENTED_EDGE('',*,*,#763,.F.);
#817 = ORIENTED_EDGE('',*,*,#670,.F.);
#818 = ORIENTED_EDGE('',*,*,#222,.F.);
#819 = ORIENTED_EDGE('',*,*,#820,.T.);
#820 = EDGE_CURVE('',#215,#24,#821,.T.);
#821 = LINE('',#822,#823);
#822 = CARTESIAN_POINT('',(5.,18.568399429321,10.));
#823 = VECTOR('',#824,1.);
#824 = DIRECTION('',(0.,1.,0.));
#825 = PLANE('',#826);
#826 = AXIS2_PLACEMENT_3D('',#827,#828,#829);
#827 = CARTESIAN_POINT('',(5.,35.60100907347,4.992451138062));
#828 = DIRECTION('',(-1.,-0.,-0.));
#829 = DIRECTION('',(0.,0.,-1.));
#830 = ADVANCED_FACE('',(#831),#842,.T.);
#831 = FACE_BOUND('',#832,.T.);
#832 = EDGE_LOOP('',(#833,#834,#835,#841));
#833 = ORIENTED_EDGE('',*,*,#820,.F.);
#834 = ORIENTED_EDGE('',*,*,#778,.F.);
#835 = ORIENTED_EDGE('',*,*,#836,.T.);
#836 = EDGE_CURVE('',#483,#340,#837,.T.);
#837 = LINE('',#838,#839);
#838 = CARTESIAN_POINT('',(-5.,18.568399429321,10.));
#839 = VECTOR('',#840,1.);
#840 = DIRECTION('',(0.,1.,0.));
#841 = ORIENTED_EDGE('',*,*,#717,.F.);
#842 = PLANE('',#843);
#843 = AXIS2_PLACEMENT_3D('',#844,#845,#846);
#844 = CARTESIAN_POINT('',(0.,34.370499610901,10.));
#845 = DIRECTION('',(-0.,-0.,-1.));
#846 = DIRECTION('',(-1.,0.,0.));
#847 = ADVANCED_FACE('',(#848),#855,.T.);
#848 = FACE_BOUND('',#849,.T.);
#849 = EDGE_LOOP('',(#850,#851,#852,#853,#854));
#850 = ORIENTED_EDGE('',*,*,#744,.F.);
#851 = ORIENTED_EDGE('',*,*,#347,.F.);
#852 = ORIENTED_EDGE('',*,*,#836,.F.);
#853 = ORIENTED_EDGE('',*,*,#514,.F.);
#854 = ORIENTED_EDGE('',*,*,#637,.F.);
#855 = PLANE('',#856);
#856 = AXIS2_PLACEMENT_3D('',#857,#858,#859);
#857 = CARTESIAN_POINT('',(-5.,35.60100907347,4.992451138062));
#858 = DIRECTION('',(1.,0.,0.));
#859 = DIRECTION('',(-0.,0.,1.));
#860 = ADVANCED_FACE('',(#861),#872,.T.);
#861 = FACE_BOUND('',#862,.T.);
#862 = EDGE_LOOP('',(#863,#864,#865,#866));
#863 = ORIENTED_EDGE('',*,*,#284,.F.);
#864 = ORIENTED_EDGE('',*,*,#323,.F.);
#865 = ORIENTED_EDGE('',*,*,#599,.F.);
#866 = ORIENTED_EDGE('',*,*,#867,.T.);
#867 = EDGE_CURVE('',#592,#285,#868,.T.);
#868 = LINE('',#869,#870);
#869 = CARTESIAN_POINT('',(-6.899990081787,2.279659986496,
    85.238700866699));
#870 = VECTOR('',#871,1.);
#871 = DIRECTION('',(1.,0.,0.));
#872 = PLANE('',#873);
#873 = AXIS2_PLACEMENT_3D('',#874,#875,#876);
#874 = CARTESIAN_POINT('',(0.,3.434437812085,85.442342219455));
#875 = DIRECTION('',(0.,-0.173667089436,0.98480441817));
#876 = DIRECTION('',(0.,0.98480441817,0.173667089436));
#877 = ADVANCED_FACE('',(#878),#889,.T.);
#878 = FACE_BOUND('',#879,.T.);
#879 = EDGE_LOOP('',(#880,#881,#882,#888));
#880 = ORIENTED_EDGE('',*,*,#867,.F.);
#881 = ORIENTED_EDGE('',*,*,#591,.F.);
#882 = ORIENTED_EDGE('',*,*,#883,.T.);
#883 = EDGE_CURVE('',#568,#261,#884,.T.);
#884 = LINE('',#885,#886);
#885 = CARTESIAN_POINT('',(-6.899990081787,12.706199645996,
    26.106899261475));
#886 = VECTOR('',#887,1.);
#887 = DIRECTION('',(1.,0.,0.));
#888 = ORIENTED_EDGE('',*,*,#292,.F.);
#889 = PLANE('',#890);
#890 = AXIS2_PLACEMENT_3D('',#891,#892,#893);
#891 = CARTESIAN_POINT('',(0.,7.492929816246,55.672800064087));
#892 = DIRECTION('',(-0.,-0.984807731314,-0.173648300725));
#893 = DIRECTION('',(0.,0.173648300725,-0.984807731314));
#894 = ADVANCED_FACE('',(#895),#901,.T.);
#895 = FACE_BOUND('',#896,.T.);
#896 = EDGE_LOOP('',(#897,#898,#899,#900));
#897 = ORIENTED_EDGE('',*,*,#802,.F.);
#898 = ORIENTED_EDGE('',*,*,#268,.F.);
#899 = ORIENTED_EDGE('',*,*,#883,.F.);
#900 = ORIENTED_EDGE('',*,*,#576,.F.);
#901 = PLANE('',#902);
#902 = AXIS2_PLACEMENT_3D('',#903,#904,#905);
#903 = CARTESIAN_POINT('',(-1.049917400796E-16,14.17448835639,
    24.638655142964));
#904 = DIRECTION('',(-0.,-0.707096043536,-0.707117518674));
#905 = DIRECTION('',(0.,-0.707117518674,0.707096043536));
#906 = ( GEOMETRIC_REPRESENTATION_CONTEXT(3) 
GLOBAL_UNCERTAINTY_ASSIGNED_CONTEXT((#910)) GLOBAL_UNIT_ASSIGNED_CONTEXT
((#907,#908,#909)) REPRESENTATION_CONTEXT('Context #1',
  '3D Context with UNIT and UNCERTAINTY') );
#907 = ( LENGTH_UNIT() NAMED_UNIT(*) SI_UNIT(.MILLI.,.METRE.) );
#908 = ( NAMED_UNIT(*) PLANE_ANGLE_UNIT() SI_UNIT($,.RADIAN.) );
#909 = ( NAMED_UNIT(*) SI_UNIT($,.STERADIAN.) SOLID_ANGLE_UNIT() );
#910 = UNCERTAINTY_MEASURE_WITH_UNIT(LENGTH_MEASURE(1.E-07),#907,
  'distance_accuracy_value','confusion accuracy');
#911 = PRODUCT_RELATED_PRODUCT_CATEGORY('part',$,(#7));
ENDSEC;
END-ISO-10303-21;
