solid OpenSCAD_Model
  facet normal -3.28589e-17 0.778405 0.627762
    outer loop
      vertex 20 51.8459 5
      vertex -15 19.5199 45.0832
      vertex 15 19.5199 45.0832
    endloop
  endfacet
  facet normal -2.46442e-17 0.778405 0.627762
    outer loop
      vertex -15 19.5199 45.0832
      vertex 20 51.8459 5
      vertex -20 51.8459 5
    endloop
  endfacet
  facet normal -1 0 0
    outer loop
      vertex -20 19.8459 0
      vertex -20 51.8459 5
      vertex -20 51.8459 0
    endloop
  endfacet
  facet normal -1 -0 0
    outer loop
      vertex -20 51.8459 5
      vertex -20 19.8459 0
      vertex -20 19.8459 5
    endloop
  endfacet
  facet normal 0 0 -1
    outer loop
      vertex -20 19.8459 0
      vertex -3.5 51.8459 0
      vertex -3.5 19.8459 0
    endloop
  endfacet
  facet normal -0 0 -1
    outer loop
      vertex -3.5 51.8459 0
      vertex -20 19.8459 0
      vertex -20 51.8459 0
    endloop
  endfacet
  facet normal 0 0 -1
    outer loop
      vertex 3.5 19.8459 0
      vertex 20 51.8459 0
      vertex 20 19.8459 0
    endloop
  endfacet
  facet normal -0 0 -1
    outer loop
      vertex 20 51.8459 0
      vertex 3.5 19.8459 0
      vertex 3.5 51.8459 0
    endloop
  endfacet
  facet normal 0.992096 -0.0217904 0.123577
    outer loop
      vertex 15 19.5199 45.0832
      vertex 15 11.6415 43.694
      vertex 20 19.8459 5
    endloop
  endfacet
  facet normal 0 -0.173651 0.984807
    outer loop
      vertex -15 19.5199 45.0832
      vertex 15 11.6415 43.694
      vertex 15 19.5199 45.0832
    endloop
  endfacet
  facet normal 0 -0.173651 0.984807
    outer loop
      vertex 15 11.6415 43.694
      vertex -15 19.5199 45.0832
      vertex -15 11.6415 43.694
    endloop
  endfacet
  facet normal -0.99231 0 0.123781
    outer loop
      vertex -20 51.8459 5
      vertex -20 19.8459 5
      vertex -15 19.5199 45.0832
    endloop
  endfacet
  facet normal 1 -0 0
    outer loop
      vertex 20 19.8459 5
      vertex 20 51.8459 0
      vertex 20 51.8459 5
    endloop
  endfacet
  facet normal 1 0 0
    outer loop
      vertex 20 51.8459 0
      vertex 20 19.8459 5
      vertex 20 19.8459 0
    endloop
  endfacet
  facet normal 0.85392 -0.520404 0
    outer loop
      vertex 20 19.8459 5
      vertex 15 11.6415 43.694
      vertex 20 19.8459 0
    endloop
  endfacet
  facet normal -0.0979981 -0.980067 -0.172813
    outer loop
      vertex -15 11.6415 43.694
      vertex -20 19.8459 0
      vertex -15 16.0348 18.7784
    endloop
  endfacet
  facet normal 0 1 0
    outer loop
      vertex 20 51.8459 5
      vertex 3.5 51.8459 4
      vertex -20 51.8459 5
    endloop
  endfacet
  facet normal 0 1 -0
    outer loop
      vertex 20 51.8459 0
      vertex 3.5 51.8459 4
      vertex 20 51.8459 5
    endloop
  endfacet
  facet normal 0 1 0
    outer loop
      vertex 3.5 51.8459 4
      vertex 20 51.8459 0
      vertex 3.5 51.8459 0
    endloop
  endfacet
  facet normal 0 1 -0
    outer loop
      vertex -3.5 51.8459 4
      vertex -20 51.8459 5
      vertex 3.5 51.8459 4
    endloop
  endfacet
  facet normal 0 1 0
    outer loop
      vertex -20 51.8459 0
      vertex -3.5 51.8459 4
      vertex -3.5 51.8459 0
    endloop
  endfacet
  facet normal 0 1 0
    outer loop
      vertex -3.5 51.8459 4
      vertex -20 51.8459 0
      vertex -20 51.8459 5
    endloop
  endfacet
  facet normal -0.85392 -0.520404 -0
    outer loop
      vertex -20 19.8459 5
      vertex -20 19.8459 0
      vertex -15 11.6415 43.694
    endloop
  endfacet
  facet normal -0.992096 -0.0217904 0.123577
    outer loop
      vertex -15 19.5199 45.0832
      vertex -20 19.8459 5
      vertex -15 11.6415 43.694
    endloop
  endfacet
  facet normal 0.99231 0 0.123781
    outer loop
      vertex 20 51.8459 5
      vertex 15 19.5199 45.0832
      vertex 20 19.8459 5
    endloop
  endfacet
  facet normal 0 -0.98002 -0.198897
    outer loop
      vertex -15 16.0348 18.7784
      vertex -3.5 19.0341 4
      vertex 15 16.0348 18.7784
    endloop
  endfacet
  facet normal 3.20809e-07 -0.980021 -0.198896
    outer loop
      vertex -20 19.8459 0
      vertex -3.5 19.0341 4
      vertex -15 16.0348 18.7784
    endloop
  endfacet
  facet normal 0 -0.980021 -0.198895
    outer loop
      vertex -3.5 19.0341 4
      vertex -20 19.8459 0
      vertex -3.5 19.8459 0
    endloop
  endfacet
  facet normal -0 -0.98002 -0.198897
    outer loop
      vertex 3.5 19.0341 4
      vertex 15 16.0348 18.7784
      vertex -3.5 19.0341 4
    endloop
  endfacet
  facet normal -0 -0.980021 -0.198895
    outer loop
      vertex 20 19.8459 0
      vertex 3.5 19.0341 4
      vertex 3.5 19.8459 0
    endloop
  endfacet
  facet normal -3.20809e-07 -0.980021 -0.198896
    outer loop
      vertex 3.5 19.0341 4
      vertex 20 19.8459 0
      vertex 15 16.0348 18.7784
    endloop
  endfacet
  facet normal 0 -0.984808 -0.173649
    outer loop
      vertex -15 11.6415 43.694
      vertex -5.00738 12.0409 41.4289
      vertex 15 11.6415 43.694
    endloop
  endfacet
  facet normal 1.06047e-07 -0.984808 -0.173648
    outer loop
      vertex -15 16.0348 18.7784
      vertex -5.00738 12.0409 41.4289
      vertex -15 11.6415 43.694
    endloop
  endfacet
  facet normal -1.98936e-17 -0.984808 -0.173648
    outer loop
      vertex -5.00738 12.0409 41.4289
      vertex -15 16.0348 18.7784
      vertex -5.00738 16.0348 18.7784
    endloop
  endfacet
  facet normal -0 -0.984808 -0.173649
    outer loop
      vertex 5.00738 12.0409 41.4289
      vertex 15 11.6415 43.694
      vertex -5.00738 12.0409 41.4289
    endloop
  endfacet
  facet normal -0 -0.984808 -0.173648
    outer loop
      vertex 15 16.0348 18.7784
      vertex 5.00738 12.0409 41.4289
      vertex 5.00738 16.0348 18.7784
    endloop
  endfacet
  facet normal -1.06047e-07 -0.984808 -0.173648
    outer loop
      vertex 5.00738 12.0409 41.4289
      vertex 15 16.0348 18.7784
      vertex 15 11.6415 43.694
    endloop
  endfacet
  facet normal 0 0 -0
    outer loop
      vertex -5.00738 16.0348 18.7784
      vertex -15 16.0348 18.7784
      vertex 15 16.0348 18.7784
    endloop
  endfacet
  facet normal 0 0 0
    outer loop
      vertex -5.00738 16.0348 18.7784
      vertex 15 16.0348 18.7784
      vertex 5.00738 16.0348 18.7784
    endloop
  endfacet
  facet normal 0.0979981 -0.980067 -0.172813
    outer loop
      vertex 20 19.8459 0
      vertex 15 11.6415 43.694
      vertex 15 16.0348 18.7784
    endloop
  endfacet
  facet normal -1 0 0
    outer loop
      vertex 3.5 19.8459 0
      vertex 3.5 51.8459 4
      vertex 3.5 51.8459 0
    endloop
  endfacet
  facet normal -1 -0 0
    outer loop
      vertex 3.5 51.8459 4
      vertex 3.5 19.8459 0
      vertex 3.5 19.0341 4
    endloop
  endfacet
  facet normal 0 0 -1
    outer loop
      vertex -3.5 19.0341 4
      vertex 3.5 51.8459 4
      vertex 3.5 19.0341 4
    endloop
  endfacet
  facet normal -0 0 -1
    outer loop
      vertex 3.5 51.8459 4
      vertex -3.5 19.0341 4
      vertex -3.5 51.8459 4
    endloop
  endfacet
  facet normal 1 0 0
    outer loop
      vertex -3.5 51.8459 4
      vertex -3.5 19.8459 0
      vertex -3.5 51.8459 0
    endloop
  endfacet
  facet normal 1 0 -0
    outer loop
      vertex -3.5 19.8459 0
      vertex -3.5 51.8459 4
      vertex -3.5 19.0341 4
    endloop
  endfacet
  facet normal 0.804611 0.584781 0.103113
    outer loop
      vertex 5.00738 12.0409 41.4289
      vertex 7 13.3758 18.3095
      vertex 5.00738 16.0348 18.7784
    endloop
  endfacet
  facet normal 0.804611 0.584781 0.103113
    outer loop
      vertex 7 13.3758 18.3095
      vertex 5.00738 12.0409 41.4289
      vertex 7 9.38188 40.9601
    endloop
  endfacet
  facet normal 1.85996e-17 -0.984808 -0.173649
    outer loop
      vertex -7 13.3758 18.3095
      vertex 7 9.38188 40.9601
      vertex -7 9.38188 40.9601
    endloop
  endfacet
  facet normal 1.85996e-17 -0.984808 -0.173649
    outer loop
      vertex 7 9.38188 40.9601
      vertex -7 13.3758 18.3095
      vertex 7 13.3758 18.3095
    endloop
  endfacet
  facet normal 0 -0.173628 0.984811
    outer loop
      vertex -5.00738 12.0409 41.4289
      vertex 7 9.38188 40.9601
      vertex 5.00738 12.0409 41.4289
    endloop
  endfacet
  facet normal 0 -0.173628 0.984811
    outer loop
      vertex 7 9.38188 40.9601
      vertex -5.00738 12.0409 41.4289
      vertex -7 9.38188 40.9601
    endloop
  endfacet
  facet normal -0.804611 0.584781 0.103113
    outer loop
      vertex -7 13.3758 18.3095
      vertex -5.00738 12.0409 41.4289
      vertex -5.00738 16.0348 18.7784
    endloop
  endfacet
  facet normal -0.804611 0.584781 0.103113
    outer loop
      vertex -5.00738 12.0409 41.4289
      vertex -7 13.3758 18.3095
      vertex -7 9.38188 40.9601
    endloop
  endfacet
  facet normal -3.6257e-18 0.173665 -0.984805
    outer loop
      vertex 7 13.3758 18.3095
      vertex -5.00738 16.0348 18.7784
      vertex 5.00738 16.0348 18.7784
    endloop
  endfacet
  facet normal -2.59361e-18 0.173665 -0.984805
    outer loop
      vertex -5.00738 16.0348 18.7784
      vertex 7 13.3758 18.3095
      vertex -7 13.3758 18.3095
    endloop
  endfacet
endsolid OpenSCAD_Model
